<svg width="135" height="40" viewBox="20 20 134.92 40" fill="none" xmlns="http://www.w3.org/2000/svg">
<path d="M33.1979 38.1961L39.6231 22.9041C39.8092 22.4604 39.5269 21.3249 39.136 21.1295C37.3955 20.2546 35.32 20.9557 34.2993 22.6311C31.777 26.7791 32.1927 29.7047 29.7852 34.0202C26.8999 29.866 27.3777 24.0458 24.3497 20.5524C23.2855 19.3269 19.9876 20.2825 20 22.0261C20.0218 24.7407 21.2007 27.2692 22.209 29.6799L25.9257 38.5808C27.0705 41.3265 26.934 44.1094 26.0933 46.945L23.5399 55.5606C23.2297 56.6061 23.2824 58.0953 23.7664 59.1036C24.2783 60.1708 27.356 60.4066 27.7779 59.147C29.1306 55.0983 29.7976 51.124 30.778 46.9202C31.1317 45.4093 33.5268 45.7816 33.9301 44.4041C34.6002 42.1145 31.7925 41.5468 33.1979 38.1992V38.1961Z" fill="black"/>
<path d="M109.025 26.6085C107.554 26.9373 106.958 28.4079 107.331 29.5155C107.722 30.6789 108.857 31.3087 110.064 31.0295C111.271 30.7503 112.084 29.5558 111.727 28.1969C111.482 27.2631 110.334 26.3168 109.025 26.6085Z" fill="black"/>
<path d="M97.992 49.6255C98.1502 43.3524 98.538 37.2312 99.6611 31.1442L104.309 30.6106C104.821 30.5516 105.45 29.6923 105.649 29.2579C105.823 28.8794 105.41 27.6415 104.979 27.6291C99.1027 27.4523 94.843 27.1637 89.6526 29.9156C88.9266 30.3003 88.8056 31.6282 89.1624 32.1742C90.3848 34.0481 92.6527 31.4762 95.327 31.2621C95.9134 34.1722 92.6403 51.9989 95.0229 52.3619C95.8544 52.4891 97.9331 51.9462 97.992 49.6224V49.6255Z" fill="black"/>
<path d="M149.993 46.634C147.03 43.274 144.741 50.965 137.717 47.1986C134.983 45.7312 133.494 42.8428 133.504 39.3587C133.513 36.0825 135.595 32.3192 139.268 32.5271C139.923 32.5643 147.216 33.9449 147.102 30.2902C147.04 28.3388 143.391 27.8207 141.57 27.6128C136.96 27.0854 132.756 29.3502 130.451 33.2872C127.451 38.4125 126.911 46.6867 133.01 49.8202C138.095 52.4325 145.848 54.0302 150.462 49.8885C151.479 48.9763 150.784 47.5275 149.996 46.6309L149.993 46.634Z" fill="black"/>
<path d="M69.3002 41.3985C69.505 40.6353 70.8918 40.5422 71.6984 40.688C72.3065 40.7966 72.7936 41.7428 72.9487 42.6022L73.9446 48.1339C74.2238 49.6789 75.8526 50.7648 77.3573 50.0885L76.4018 43.7191C76.2342 42.5929 76.7989 41.0665 77.075 40.1358C74.4255 37.7655 78.7844 28.5295 74.5217 28.8335C71.6395 29.0383 73.7492 33.0466 72.3996 37.8927C72.201 38.6063 70.4823 38.4604 69.9393 38.1161C69.4429 37.8027 68.7573 36.6982 68.8814 36.056L69.8214 31.241C70.0758 29.9318 68.6022 29.3982 67.6621 29.4013C66.5111 29.4044 65.6983 30.3847 65.6735 31.7095L65.5556 37.5576C65.5307 38.7552 65.3446 39.8814 65.4718 41.0262L66.0333 46.1638C66.2009 47.6965 67.7924 48.7978 69.2351 48.4907C70.2744 46.3748 68.4936 44.3675 69.2971 41.4016L69.3002 41.3985Z" fill="black"/>
<path d="M52.8823 40.4511C52.963 38.2794 54.4305 36.089 56.6891 36.3962C58.0603 36.5823 59.7791 36.6785 61.0046 35.9929C61.352 35.7974 61.5785 34.7053 61.3396 34.4075C60.3531 33.1851 55.445 32.2513 52.479 34.9659C49.8885 37.3362 48.8926 41.1895 50.025 44.5401C51.2535 48.1824 58.4264 50.0625 62.3821 48.2445C63.0119 47.9559 63.8868 47.2889 63.9302 46.7274C63.9736 46.1658 63.3531 45.2413 62.8629 44.8938C61.501 43.929 59.4285 47.8939 55.3984 45.5888C53.7231 44.6301 52.7986 42.84 52.8854 40.4511H52.8823Z" fill="black"/>
<path d="M152.193 43.5796C150.84 43.8154 150.223 45.2177 150.412 46.2198C150.688 47.6686 152.013 48.2488 153.161 48.0099C154.501 47.7338 155.15 46.468 154.849 45.1804C154.598 44.1039 153.471 43.3593 152.193 43.5827V43.5796Z" fill="black"/>
<path d="M126.269 52.992C124.054 52.5298 124.935 48.63 123.412 46.9981C122.062 45.5492 118.925 45.8409 117.731 47.4355C116.388 49.235 116.912 51.8379 115.19 52.8773C114.796 53.1161 113.462 52.7935 113.338 52.325C113.021 50.5194 113.847 48.4718 114.337 46.6537L117.607 34.4766L118.95 29.4971C119.208 28.5416 121.243 27.2944 121.904 28.4268C124.172 32.3142 124.904 38.4167 126.291 42.7539C126.409 43.1262 127.516 43.7808 127.488 44.088C126.101 47.8854 128.649 48.9278 128.161 52.1544C128.081 52.688 126.778 53.0975 126.269 52.992ZM122.295 43.0425C123.005 41.8511 122.589 39.8686 122.093 38.7921L120.601 35.5717C119.965 37.1881 119.655 38.2988 119.248 39.7663L118.336 43.0704C119.347 43.9949 121.525 44.3362 122.295 43.0425Z" fill="black"/>
<path d="M47.407 49.4832C44.9715 49.1543 45.9985 46.207 44.7016 44.5006C43.6344 43.0983 40.7584 43.3527 39.7967 44.7799C38.6705 46.4552 39.1296 48.0871 37.8328 49.2474C37.5163 49.5297 36.2505 49.2815 36.1233 48.8782C35.9093 47.4356 36.5391 45.6299 36.93 44.178L39.6881 33.9523L40.8174 29.764C40.9259 29.3637 41.4627 28.8053 41.7791 28.5788C42.0956 28.3523 43.3148 28.4795 43.5258 28.8177C44.835 31.9419 45.7813 35.6245 46.4731 39.0806C46.6748 40.092 47.3077 41.0569 47.8537 41.7084C47.1712 46.4335 49.0761 45.4562 48.5053 49.1543C49.4887 49.5545 50.525 50.3581 50.5777 51.3323C50.6459 52.6632 49.861 53.6343 48.6231 53.8421C47.6242 54.0097 46.4824 53.2837 46.2032 52.505C45.7192 51.1523 46.3304 49.992 47.4039 49.4863L47.407 49.4832ZM43.6964 40.9545C44.4193 38.848 43.3986 36.5925 42.077 34.9885L40.3086 41.0631C41.1586 41.8387 43.3055 42.0869 43.6964 40.9545Z" fill="black"/>
<path d="M91.5957 51.5081C88.729 52.2372 89.7311 48.3964 88.3753 46.659C87.3143 45.3001 84.429 45.5452 83.4921 46.9785C82.2387 48.8927 82.8623 50.7139 81.2676 51.5422C80.9387 51.7129 79.7908 51.3406 79.7629 50.9404C79.6605 49.5039 80.2996 47.5959 80.6936 46.1409L83.4579 35.8841L84.6089 31.7423C84.7051 31.398 85.2139 30.9481 85.4745 30.7651C85.7879 30.5448 86.9978 30.6162 87.1685 30.9854C87.8696 32.5149 88.6483 34.7362 89.0517 36.396L90.6525 42.9453L91.6019 43.783C91.8625 44.0126 91.4095 44.9247 91.4002 45.3466C91.3351 47.962 93.5099 51.021 91.5957 51.5081ZM87.4911 42.9577C87.9968 40.7581 87.0475 38.816 85.8158 37.0817L84.035 43.088C84.5779 44.1336 87.1685 44.3694 87.4911 42.9577Z" fill="black"/>
<path d="M113.939 43.7005C112.202 48.8692 106.31 51.832 103.652 49.7782C103.385 49.5734 103.022 48.8226 102.913 48.5217C102.789 48.1742 103.813 47.5941 103.974 47.2218C104.232 43.4306 103.894 38.9134 103.211 35.0291C103.149 34.6816 102.479 34.0332 102.507 33.6857C102.662 31.6474 106.794 32.4851 107.948 33.0714C111.411 34.8336 115.49 39.0902 113.939 43.7005ZM111.656 41.8824C111.569 38.9661 109.186 36.3538 106.357 35.9691L106.884 47.4637C109.447 48.1959 111.702 43.443 111.656 41.8824Z" fill="black"/>
</svg>
