<svg preserveAspectRatio="none" overflow="visible" style="display: block;" width="506.198" height="359.238" viewBox="0 0 506.198 359.238" fill="none" xmlns="http://www.w3.org/2000/svg">
<g id="Group 15393">
<path data-route data-ink="2" data-stroke="#D4D4DE" data-from="0.66" data-to="0.8" id="Vector" d="M505.245 72.4937C506.686 75.1174 506.304 78.2176 505.341 81.1852C505.233 81.5169 505.091 81.8788 504.789 82.0417C504.316 82.295 503.724 81.8607 503.576 81.3239C503.325 80.4312 503.917 79.4541 503.929 78.5434C503.94 77.524 503.587 76.3599 503.257 75.413C502.573 73.4527 501.411 71.7277 499.936 70.3464C497.868 68.4103 495.658 66.6129 493.288 65.0748C491.83 64.1279 490.143 64.4958 489.078 65.8046C487.381 67.8916 484.886 68.3922 482.504 67.1316C477.925 64.7129 477.252 57.282 476.882 52.3301L476.199 43.144C475.891 39.0003 474.233 35.7432 472.069 32.4198C470.16 29.4884 469.158 26.0565 467.722 22.8416C466.879 20.9477 466.338 19.0116 466.213 16.8884C465.899 11.7375 463.649 7.07505 459.736 3.95069C456.899 7.23188 453.72 17.3468 452.849 21.4725L449.311 38.2161C448.223 43.3852 447.5 48.313 447.551 53.663C447.739 74.0016 450.519 75.2742 443.222 94.9734C441.502 99.6117 440.248 104.178 439.075 108.985C438.243 112.381 436.979 115.505 434.928 118.141C431.727 122.254 426.959 123.871 422.117 122.272C418.87 121.205 415.816 119.733 412.82 118.02C407.089 114.739 405.927 107.35 400.561 107.031L399.98 104.033C407.488 103.538 409.015 112.435 414.421 115.451C417.178 116.989 419.952 118.34 422.908 119.323C430.348 121.802 434.637 114.902 436.278 108.164C437.463 103.285 438.75 98.6466 440.493 93.9239C441.821 90.323 442.971 86.8549 443.98 83.1756C445.181 78.7967 445.421 74.5143 445.238 69.9363L444.646 54.8814C444.407 48.8257 445.261 43.2163 446.509 37.3597C448.651 27.2748 451.818 6.5865 459.371 0C470.069 6.83982 468.622 17.0634 469.579 19.4398C471.117 23.2457 472.342 27.2447 474.507 30.7189C476.819 34.4343 478.699 37.993 479.052 42.5589L479.753 51.745C480.032 55.4122 480.459 62.1495 483.501 64.2244C484.794 65.105 486.099 64.7913 487.027 63.6755C488.833 61.5222 491.465 60.9311 493.943 62.0228C495.373 62.6501 496.495 63.6272 497.748 64.5863C500.528 66.7094 502.812 68.935 504.834 71.8604C504.983 72.0775 505.119 72.2946 505.239 72.5178L505.245 72.4937Z" fill="#D4D4DE" fill-opacity="0.4"/>
<path data-route data-ink="5" data-stroke="#090E12" data-split="tip" data-from="0.06" data-to="0.66" id="Vector_2" d="M399.986 104.026L400.567 107.024C401.154 110.293 400.909 113.592 401.262 116.922C401.615 120.251 400.954 123.128 401.085 126.271C401.291 131.259 400.818 135.915 400.88 140.891L401.251 169.644L401.125 181.442C401.034 189.844 401.422 198.065 400.715 206.443C400.368 210.556 400.043 214.35 400.072 218.506C400.111 224.7 400.299 230.672 399.98 236.878C399.599 244.249 399.644 251.3 400.277 258.628C400.596 262.313 400.71 265.908 400.242 269.533C400.037 271.113 399.451 272.76 398.095 273.472C396.021 274.558 393.703 274.883 391.356 274.841L379.712 274.648L366.195 273.725C361.98 273.436 357.878 273.538 353.68 273.092C350.911 272.796 348.308 273.14 345.528 273.267C341.011 273.472 336.687 272.839 332.164 272.778L314.773 272.549C306.713 272.44 298.96 273.243 290.888 272.941C285.659 272.748 280.697 273.635 275.531 273.484L267.823 273.255C264.331 273.152 260.925 273.405 257.518 272.766C254.556 272.205 254.26 269.455 254.243 266.397C254.209 261.216 254.499 256.215 254.853 251.046C255.12 247.132 254.83 243.483 254.778 239.58L254.608 227.216L254.494 217.276C254.425 211.479 253.719 205.912 254.038 200.098C254.636 189.132 253.628 182.063 253.594 171.194L253.571 163.902L252.283 129.021L252.016 116.922C251.862 110.052 251.247 103.321 251.52 96.4628C251.628 93.7968 251.52 91.5289 251.184 88.8811C250.603 84.3815 250.831 79.888 250.5 75.3582C250.409 74.0795 251.235 72.9577 251.873 72.445C252.808 71.7031 253.873 71.504 254.932 71.9323C256.482 72.5596 258.043 72.837 259.626 73.3015C262.474 74.1338 264.246 77.6563 265.374 76.4922C266.331 75.503 265.14 70.8406 265.169 69.0432C263.352 68.1083 261.91 66.7693 260.817 65.0744C259.284 62.6919 259.763 60.1647 261.608 58.1923C264.462 55.1343 267.647 52.5769 270.951 50.0678C272.574 48.8373 273.372 47.4139 273.434 45.2666C273.537 41.8708 274.408 38.3846 276.647 35.8574C279.222 32.9501 282.264 30.6702 285.573 28.8004C290.575 25.9776 297.815 27.3468 303.232 28.2576C305.334 28.6134 309.151 29.0236 309.515 26.0681C309.931 22.6602 304.622 21.5022 300.646 16.2487C298.852 13.8843 298.903 10.4463 301.535 8.89615C304.634 7.06858 312.893 10.5971 316.021 12.304C318.596 13.7094 320.561 15.8626 322.703 17.841C323.876 18.9267 329.043 15.3379 335.491 18.5949L345.078 23.4323C350.239 26.0379 355.765 27.0935 360.852 23.8123C363.939 21.8158 366.622 25.4287 368.866 27.6363C369.698 26.4662 370.359 25.4227 371.458 24.8316C373.173 23.9088 375.041 24.138 376.443 25.483C377.394 26.3938 378.465 26.436 379.69 26.2008C381.832 25.7906 383.535 27.9017 383.392 30.1575C383.09 34.8682 379.536 36.9611 378.949 41.9493C378.818 43.0832 379.468 44.6213 378.636 45.5803C376.283 48.2945 371.151 46.491 369.356 47.4863C368.285 48.0834 367.898 49.6999 367.761 50.9846C367.266 55.6772 366.599 60.1586 364.925 64.5255C362.657 70.4244 359.234 70.8345 361.239 75.0205C364.167 81.1365 369.601 84.0859 375.298 86.7278C380.294 89.0379 385.096 91.3781 389.858 94.1828C393.441 96.2879 398.699 99.9912 400.02 104.02L399.986 104.026ZM378.887 30.9657C378.522 29.8981 376.813 31.6111 375.332 30.7245C374.529 30.2419 374.688 28.4928 373.857 28.4928C372.9 28.4928 371.179 31.6413 370.632 32.6606C370.086 33.6799 369.465 34.446 368.428 34.7536C365.494 35.6221 367.511 30.2178 363.221 27.3046C361.632 27.8112 360.345 28.8607 358.744 29.0175C356.716 29.2166 354.728 29.7835 352.654 29.8016C346.525 29.8499 340.988 27.2865 336.249 23.4443C330.826 19.0473 327.795 23.0161 322.275 21.7977C318.732 21.0136 311.823 12.4849 304.833 12.2497C304.394 12.2377 303.887 12.4367 303.899 12.7986C303.904 12.9916 304.007 13.4198 304.241 13.6008C306.553 15.4042 308.365 17.6239 310.569 19.56C312.045 20.8568 312.99 22.7628 314.038 24.1983C316.072 25.29 318.687 25.2418 320.538 26.8281C322.389 28.4144 322.919 31.1648 323.022 33.7704L323.608 48.5297C323.711 51.1836 324.087 53.6264 323.842 56.2984C329.675 58.5904 330.188 60.9729 337.058 61.0815C341.039 61.1418 344.765 61.6062 348.69 62.3722C352.615 63.1382 356.568 63.102 360.652 63.084C363.039 57.6435 362.976 49.7059 365.859 45.339C368.001 42.088 370.41 43.1315 373.959 42.4619C374.91 42.281 375.577 41.6296 375.611 40.5861C375.742 36.5329 377.724 34.5666 378.898 30.9657H378.887ZM319.763 54.8086C320.219 52.8845 320.162 51.3887 319.889 49.7541C319.41 46.8168 319.41 43.9819 319.308 40.9963L318.994 31.973C318.886 28.7944 315.559 28.1912 313.184 28.0887C312.17 30.0308 310.518 30.9597 308.536 31.4603C307.989 33.1612 307.744 34.9345 307.63 36.7862L306.747 50.9484C311.048 51.455 315.565 53.0414 319.758 54.8086H319.763ZM279.541 63.6147C282.457 62.4687 285.42 61.7268 288.473 61.0875C296.163 59.4831 296.59 55.0257 302.366 51.3525C303.067 48.9157 303.466 46.6358 303.557 44.1809L304.03 31.9127L290.877 31.9006C288.837 31.9006 286.946 32.3711 285.232 33.4688C283.044 34.9647 281.05 36.6716 279.296 38.662C275.291 43.2038 278.931 48.5116 276.009 51.1897C274.049 52.9871 271.782 54.3321 269.629 55.8702C267.914 57.0946 264.029 58.1622 264.064 60.7316C264.075 61.6786 264.451 62.4084 265.197 63.0659C269.088 66.5159 275.12 65.3458 279.541 63.6147ZM313.725 111.343C319.968 110.456 326.103 110.426 332.409 110.094C338.339 109.781 350.154 110.311 355.662 112C357.65 112.609 359.576 113.219 361.398 114.352C366.634 117.622 371.817 120.752 376.676 124.636C380.242 127.483 383.54 130.167 387.631 132.091C391.721 134.015 391.795 137.212 395.657 139.516C395.953 139.691 396.283 139.824 396.5 139.673C396.699 139.534 396.978 139.191 397.013 138.817C397.622 132.574 396.352 128.75 397.013 121.735C397.303 118.671 396.893 115.782 396.517 112.724C396.027 108.677 397.753 105.064 393.435 101.71C381.313 92.2949 367.796 90.1718 358.949 78.3499C356.152 74.6163 355.098 71.4498 357.639 67.2277L336.431 65.0201C324.326 63.7595 311.281 51.0931 304.132 54.694C301.888 55.8219 300.23 57.8666 298.823 59.9716C296.374 63.6389 292.984 64.1576 288.746 64.9356C284.508 65.7137 280.788 66.4013 276.898 67.7283C274.5 68.5425 272.244 69.4051 269.749 69.8212L269.561 75.696C269.492 77.8855 268.296 80.2559 266.086 80.6238C264.331 80.9133 263.295 77.2642 260.088 77.1918C257.872 77.1376 255.416 75.883 255.092 76.5766C254.955 76.8782 254.67 77.3788 254.722 77.7769C255.679 84.665 255.331 91.3058 255.548 98.2542L256.328 122.954C256.499 128.382 256.163 133.545 256.727 138.955C257.336 144.746 257.758 150.301 257.615 156.248C259.632 155.494 260.577 154.052 262.224 153.244C265.721 151.519 269.544 150.452 273.497 150.367C279.438 150.24 285.18 150.379 291.065 150.868C294.09 151.121 296.926 151.917 299.968 151.676C300.976 151.598 301.677 151.224 301.677 150.072C301.677 147.146 301.785 144.287 302.042 141.332C302.406 137.067 302.509 132.978 302.469 128.696C302.44 125.155 302.646 121.741 303.318 118.333C304.343 113.08 309.316 111.97 313.714 111.349L313.725 111.343ZM381.894 194.03C386.713 195.881 387.995 199.639 394.876 203.312C395.23 203.499 395.691 203.536 395.896 203.252C396.004 203.101 396.147 202.806 396.152 202.456C396.312 190.899 397.571 185.7 396.796 173.275C396.574 169.698 396.295 166.297 396.369 162.714L396.642 149.474C396.694 147.02 395.731 144.878 393.709 143.606C391.84 142.43 390.348 140.813 389.089 138.955C387.722 136.947 385.699 136.139 383.763 134.836L361.9 120.064C358.3 117.634 354.62 116.264 350.342 115.649C344.651 114.823 339.057 114.895 333.287 114.823C329.954 114.781 326.912 115.076 323.58 115.372C318.858 115.794 314.198 115.818 309.703 117.23C308.012 117.76 307.351 118.749 307.26 120.571L306.764 130.795C306.519 135.903 305.67 140.717 305.796 145.868C305.915 150.572 305.784 155.078 305.454 159.746C305.243 162.684 305.329 165.518 305.625 168.456C305.847 170.663 305.722 172.774 306.103 174.946C306.405 176.671 308.211 177.624 309.903 177.648L330.148 177.931C332.501 177.962 334.654 178.203 337.001 178.112C341.131 177.95 345.186 178.583 349.009 180.229C351.299 181.213 353.429 182.214 355.822 182.932C360.544 184.355 364.902 186.243 369.351 188.457C373.486 190.513 377.479 192.335 381.894 194.036V194.03ZM395.406 266.397C395.6 262.898 395.776 259.412 395.588 255.848C395.389 252.066 395.133 248.483 395.292 244.701C395.492 239.912 395.281 235.328 395.127 230.545C394.985 226.051 395.366 221.739 395.691 217.282C395.925 214.073 396.699 209.525 394.54 207.914C390.69 205.043 387.568 205.164 380.943 199.398C378.619 197.377 376.204 196.454 373.475 195.206C366.571 192.057 359.974 188.752 352.917 185.99C346.702 183.553 340.515 182.546 333.851 182.274L324.736 181.9C318.094 181.629 306.172 184.234 302.446 177.684C301.273 175.621 301.546 173.227 301.512 170.881L301.318 157.358C301.307 156.658 300.606 155.91 299.934 155.874L283.175 154.891L273.497 155.186C267.704 155.361 264.462 157.901 259.74 160.826C259.108 161.218 257.86 161.447 257.9 162.479C258.025 165.512 258.213 168.438 258.253 171.508L258.47 188.058C258.55 194.295 258.396 200.2 258.663 206.449C258.954 213.252 259.222 219.821 258.886 226.624C258.618 232.029 258.635 237.077 259.068 242.433C259.541 248.248 258.908 253.929 258.663 259.762C258.55 262.458 258.891 265.003 258.481 267.621C258.339 268.532 259 268.912 259.706 268.972C264.44 269.376 268.991 269.539 273.782 269.099C279.74 268.55 285.448 268.61 291.412 268.61H300.544L322.446 268.393L337.251 268.659L347.807 268.616C356.562 268.586 365.038 269.334 373.743 269.895C378.755 270.215 383.518 270.456 388.468 271.276C390.906 271.68 395.218 269.503 395.389 266.409L395.406 266.397Z" fill="#090E12"/>
<path data-feature data-at="0.8" id="Vector_3" d="M74.9593 174.524C75.4435 173.746 75.7397 172.847 76.822 172.817C78.793 172.763 79.8297 171.478 81.1684 170.067C84.7287 166.309 91.2169 165.633 96.1671 165.151C106.415 164.144 118.902 161.435 126.261 153.335C131.667 147.382 131.81 143.178 139.95 135.602C144.205 131.645 144.046 125.97 142.502 120.632C141.169 116.011 144.222 112.604 147.424 110.046C149.212 108.617 152.334 103.767 154.778 106.204C156.401 107.821 157.637 110.402 158.771 112.417C159.751 114.16 160.24 116.536 161.744 117.899C162.895 118.943 163.322 118.219 164.165 117.109C165.384 115.499 166.472 113.78 167.446 111.994C168.905 109.322 166.558 105.432 165.213 103.267C164.427 102 163.778 100.034 164.815 99.0687C165.948 98.0252 168.307 99.2316 169.748 99.8769C172.989 101.331 176.316 100.01 177.808 96.6199C178.697 94.5933 178.851 92.4521 178.372 90.2928C178.076 88.9537 177.535 87.7474 178.144 86.4265C178.754 85.1056 180.053 84.0923 181.141 83.1936C183.71 81.0584 186.547 79.3213 189.457 77.7712C189.805 75.4249 190.13 73.2837 191.172 71.3958C193.895 66.4499 197.227 71.637 202.058 67.1737C205.231 64.2423 204.114 60.2434 204.929 59.6342C205.852 58.9405 208.341 61.6427 212.05 59.1336C213.645 58.0539 216.732 54.5375 218.526 55.581C223.739 58.6148 229.669 63.9106 232.824 69.3149C234.226 71.7155 233.309 73.9411 232.676 76.396C232.34 77.7169 232.033 80.1175 233.2 81.1187C234.898 82.5723 236.305 80.4009 237.063 79.1283C239.005 75.8531 243.078 70.6298 247.031 73.9773C247.897 73.4646 248.524 72.8615 249.19 72.0231C247.077 69.5622 243.858 69.339 241.067 70.5936C239.278 71.3958 238.327 72.9157 236.533 74.4236C236.669 71.8723 236.533 69.8638 235.365 67.8251C231.976 61.9202 225.419 56.0454 219.745 52.7883C217.94 51.7509 215.627 52.6496 214.026 53.681C212.819 54.4651 211.941 55.4664 210.859 56.3108C207.863 58.651 206.222 54.9899 203.192 57.113C200.691 58.8682 202.622 62.5052 200.178 64.8334C199.067 65.8889 197.615 66.3534 196.077 66.0639C190.255 64.954 187.572 70.6358 186.78 75.7807C183.681 77.5118 180.691 79.4962 178.036 81.9269C177.045 82.8377 175.484 83.9536 174.732 85.0453C173.741 86.4868 174.806 88.2963 175.228 89.7318C175.786 91.6137 175.985 93.5136 175.171 95.3533C174.356 97.1869 172.727 97.8383 170.933 97.0783C168.489 96.0409 165.157 94.3882 162.764 96.8853C161.796 97.8925 161.306 99.3703 161.391 100.981C161.545 103.972 166.205 108.014 164.689 110.903C162.861 114.395 158.976 107.042 158.144 105.824C157.29 104.582 156.418 103.158 155.364 102.091C154.772 101.493 153.581 100.197 152.755 100.058C151.365 99.8227 151.138 101.614 150.591 102.567C149.993 103.604 149.246 104.533 148.352 105.299L144.439 108.653C140.736 111.826 138.258 116.265 139.716 121.422C140.878 125.541 141.38 130.204 138.047 133.286C134.111 136.923 130.949 141.006 128.192 145.735C124.945 151.308 120.531 155.307 114.749 157.708C108.682 160.229 102.422 161.484 95.8823 162.105C90.146 162.648 82.8602 163.552 78.8443 168.215C74.4124 173.354 68.5964 172.739 62.5582 172.371C57.9384 172.087 52.897 172.461 48.7614 174.868C45.1784 176.955 42.8656 180.568 40.3421 183.861C38.28 186.557 35.7565 188.541 32.783 189.941L25.8333 193.21C24.0674 194.042 22.4496 195.2 21.054 196.618C20.416 197.269 18.5533 200.405 17.3855 199.645C17.1577 199.501 17.0494 199.217 16.9583 198.952C16.6507 198.065 16.4228 195.761 15.4544 195.429C14.2582 195.013 12.5493 197.01 11.8657 197.86C10.7093 199.308 9.84345 200.991 9.23963 202.77C7.99211 206.431 7.80983 210.454 8.23136 214.296L9.08583 222.113C10.1454 231.782 6.08381 236.36 5.15529 243.592C4.31222 250.13 5.66797 259.889 10.7036 264.334C13.9677 267.217 15.7563 271.542 14.3493 276.253C10.96 271.85 9.18836 268.08 4.31792 265.42C4.83629 270.655 6.98384 274.015 7.93515 279.25C5.18947 277.459 2.83115 275.752 2.67923e-05 274.323C0.450044 278.575 1.96529 282.363 4.47172 285.704L9.64977 292.604C14.7253 299.366 17.8048 350.945 19.9124 358.617L23.3018 359.238C21.0688 353.84 16.7646 302.14 15.1582 296.959C13.2841 290.903 8.28263 286.874 5.29201 281.404C7.17183 282.242 8.23706 283.732 9.85484 285.023C12.3499 282.278 10.7264 279.118 10.3106 275.849C12.0024 277.905 13.193 280.119 14.1841 282.791C19.3223 276.409 18.8324 267.519 12.874 262.302C8.32251 258.315 7.22879 249.37 8.08326 243.682C9.21115 236.185 13.2328 232.192 11.8942 220.877C11.4555 217.155 11.1365 213.397 11.1536 209.646C11.165 207.408 11.4328 198.91 15.0443 202.86C15.6766 203.554 16.4399 204.392 17.2716 204.821C18.2685 205.333 19.2312 205.291 19.8863 204.223C20.9914 202.432 21.2534 200.611 22.8655 199.06C24.4548 197.408 26.3517 196.274 28.3967 195.315L34.7482 192.329C38.4053 190.61 41.1738 187.407 43.7429 184.199C46.312 180.99 48.4538 177.902 52.0995 176.43C53.9053 175.7 55.9503 175.392 57.8643 175.199C61.2195 174.862 64.6146 175.073 67.9527 175.501C69.28 175.676 70.4192 176.062 71.775 175.978C72.7092 175.917 73.7574 175.839 74.5093 175.103C74.6802 174.934 74.8226 174.735 74.9536 174.53L74.9593 174.524ZM236.499 74.5986C236.499 74.5141 236.436 74.4478 236.356 74.4478C236.276 74.4478 236.214 74.5141 236.214 74.5986C236.214 74.683 236.276 74.7493 236.356 74.7493C236.436 74.7493 236.499 74.683 236.499 74.5986Z" fill="#D4D4DE" fill-opacity="0.4"/>
<path data-feature data-at="0.7" id="Vector_4" d="M292.591 21.9134C289.293 25.0921 284.144 24.5372 281.785 20.5201C280.777 18.8072 280.225 16.5574 280.447 14.5489C280.555 13.5536 281.859 12.9806 282.68 12.8057C285.847 12.1362 289.094 12.3594 292.124 13.5235C293.685 14.1206 294.403 15.9723 294.58 17.3415C294.83 19.2414 293.976 20.5865 292.597 21.9134H292.591ZM291.139 17.6491C291.099 16.1895 287.072 15.2606 284.879 15.9783C284.127 16.2256 283.916 17.0459 283.927 17.6551C283.939 18.2643 284.092 19.1268 284.81 19.4405C287.396 20.5805 291.196 19.6516 291.139 17.6491Z" fill="#090E12"/>
<path data-feature data-at="0.7" id="Vector_5" d="M376.42 65.7253C374.375 65.677 372.666 64.9412 371.23 63.8374C370.017 62.9086 369.903 61.5153 370.535 60.1762C371.732 57.649 373.936 52.9625 377.115 53.5716C379.821 54.0904 380.686 58.9277 380.635 61.4067C380.584 63.8857 378.904 65.7796 376.42 65.7253ZM377.36 59.0001C377.121 58.2039 376.574 57.7274 375.856 58.1134C375.053 58.5417 374.027 59.4886 374.005 60.6105C373.982 61.7324 375.622 62.1486 376.352 61.9194C377.417 61.5816 377.741 60.2607 377.365 59.0001H377.36Z" fill="#090E12"/>
<path data-feature data-at="0.7" id="Vector_6" d="M278.51 25.61C277.49 26.3699 273.457 25.5858 272.859 24.9646C271.959 24.0357 272.984 19.9403 273.371 18.2092C273.599 17.1838 274.437 16.4781 275.473 16.7134C276.698 16.9848 277.826 17.4734 278.857 18.1911C282.229 20.5495 279.159 25.1274 278.51 25.61ZM277.587 22.4735C277.712 21.5205 276.561 20.3625 275.792 20.5072C275.12 20.6399 274.966 22.2323 275.394 22.7027C275.821 23.1732 277.49 23.1973 277.587 22.4735Z" fill="#090E12"/>
<path data-feature data-paint="brush" data-at="0.74" id="Vector_7" d="M395.406 266.397C395.235 269.497 390.923 271.669 388.485 271.264C383.535 270.444 378.767 270.203 373.76 269.883C365.056 269.322 356.574 268.574 347.824 268.605L337.269 268.647L322.464 268.381L300.561 268.592H291.429C285.465 268.598 279.757 268.538 273.799 269.087C269.008 269.527 264.451 269.371 259.723 268.96C259.011 268.9 258.356 268.514 258.498 267.609C258.908 264.992 258.561 262.446 258.681 259.75C258.931 253.924 259.558 248.236 259.085 242.421C258.652 237.059 258.635 232.017 258.903 226.613C259.239 219.809 258.971 213.241 258.681 206.437C258.413 200.194 258.567 194.283 258.487 188.047L258.27 171.496C258.231 168.426 258.043 165.501 257.917 162.467C257.877 161.435 259.125 161.2 259.757 160.814C264.48 157.889 267.721 155.349 273.514 155.174L283.192 154.879L299.951 155.862C300.623 155.904 301.324 156.646 301.335 157.346L301.529 170.869C301.563 173.215 301.29 175.609 302.463 177.672C306.183 184.223 318.106 181.617 324.753 181.888L333.868 182.262C340.533 182.534 346.719 183.541 352.934 185.978C359.992 188.746 366.588 192.046 373.492 195.194C376.221 196.437 378.636 197.359 380.96 199.386C387.585 205.152 390.707 205.032 394.557 207.903C396.716 209.513 395.942 214.055 395.708 217.27C395.383 221.733 395.002 226.04 395.144 230.533C395.292 235.322 395.509 239.906 395.309 244.689C395.15 248.477 395.406 252.06 395.606 255.836C395.794 259.4 395.617 262.887 395.423 266.385L395.406 266.397ZM331.954 227.21C331.555 227.529 331.128 227.94 331.025 228.362C330.866 229.049 330.957 229.791 331.555 230.28C333.338 231.745 336.249 231.782 337.815 229.972C338.772 228.868 337.798 227.674 336.989 226.968C341.136 223.319 347.938 210.195 348.599 202.221C349.362 193.041 342.948 184.814 333.566 185.568C326.189 186.159 320.635 192.239 320.475 200.11C320.401 203.687 321.131 206.962 322.236 210.339C324.349 216.781 328.063 222.023 331.948 227.21H331.954ZM305.505 253.429C305.619 250.16 305.819 247.084 306.143 243.815C306.468 240.558 306.297 237.282 304.884 234.363C302.851 230.153 296.015 229.405 292.005 229.067L283.289 228.344C279.29 228.012 275.679 230.497 274.34 234.405C274.351 240.835 274.181 246.843 274.625 253.182C274.784 255.432 275.633 258.502 277.633 259.533C281.899 261.735 286.707 262.482 291.412 262.567C294.101 262.615 296.471 261.753 299.023 261.137C302.503 260.305 305.369 257.332 305.511 253.435L305.505 253.429Z" fill="#AF231C"/>
<path data-feature data-at="0.7" id="Vector_8" d="M236.356 74.7488C236.435 74.7488 236.498 74.6813 236.498 74.5981C236.498 74.5148 236.435 74.4473 236.356 74.4473C236.277 74.4473 236.214 74.5148 236.214 74.5981C236.214 74.6813 236.277 74.7488 236.356 74.7488Z" fill="#E8E8ED"/>
<path data-feature data-at="0.7" id="Vector_10" d="M305.505 253.43C305.368 257.326 302.497 260.293 299.017 261.132C296.465 261.747 294.101 262.61 291.406 262.561C286.695 262.477 281.893 261.729 277.627 259.527C275.627 258.496 274.773 255.432 274.619 253.176C274.175 246.831 274.346 240.83 274.334 234.4C275.673 230.497 279.284 228.006 283.283 228.338L291.999 229.062C296.009 229.394 302.845 230.148 304.878 234.358C306.291 237.277 306.462 240.552 306.137 243.809C305.813 247.078 305.619 250.154 305.499 253.424L305.505 253.43ZM299.017 256.168C300.327 255.42 301.557 254.196 301.546 252.748L301.506 247.108L302.19 239.285C302.395 236.975 301.136 235.202 298.914 234.87L287.749 233.2C284.781 232.753 278.937 232.789 278.487 237.036C278.151 240.22 278.379 243.296 278.55 246.511L278.965 254.274C279.165 258.02 283.864 257.266 286.291 257.76C290.592 258.635 295.007 258.448 299.011 256.168H299.017Z" fill="#090E12"/>
<g data-feature data-float data-at="0.86">
<path id="Vector_9" d="M336.989 226.969L335.611 228.181C333.828 229.749 333.634 227.892 331.954 227.204C328.069 222.017 324.354 216.775 322.241 210.334C321.136 206.956 320.407 203.687 320.481 200.104C320.64 192.233 326.194 186.153 333.571 185.562C342.948 184.808 349.362 193.041 348.604 202.215C347.943 210.189 341.142 223.308 336.995 226.963L336.989 226.969ZM341.495 198.481C340.441 194.651 337.354 192.432 333.811 192.733C330.461 193.023 327.744 195.188 326.793 198.288C325.756 201.66 326.81 205.056 329.367 207.276C332.079 209.634 335.764 209.694 338.567 207.643C341.37 205.593 342.481 202.058 341.495 198.481Z" fill="#FBAE3D"/>
<path id="Vector_11" d="M331.953 227.21C333.634 227.898 333.828 229.755 335.611 228.187L336.989 226.975C337.804 227.68 338.772 228.875 337.815 229.978C336.249 231.788 333.338 231.752 331.555 230.286C330.962 229.797 330.865 229.056 331.025 228.368C331.122 227.946 331.555 227.542 331.953 227.216V227.21Z" fill="#090E12"/>
</g>
</g>
</svg>
