<svg preserveAspectRatio="none" overflow="visible" style="display: block;" width="1128.88" height="783" viewBox="0 0 1128.88 783" fill="none" xmlns="http://www.w3.org/2000/svg">
<g id="Layer_1" clip-path="url(#clip0_0_4)">
<path id="Vector" d="M978.423 366.612C962.353 369.115 944.961 368.986 928.143 368.881C920.576 368.834 912.74 368.775 905.208 368.963C900.588 369.079 896.226 370.343 892.003 371.571C888.6 372.565 885.384 373.489 882.659 373.594C882.553 373.594 882.436 373.594 882.319 373.594C877.875 373.594 871.676 370.436 866.682 367.887C865.372 367.22 864.121 366.577 862.963 366.027C848.203 358.939 834.484 349.922 822.216 339.209C813.865 331.922 805.502 325.466 797.655 319.49C793.479 316.309 789.281 312.894 785.21 309.595C772.696 299.432 759.761 288.929 744.486 282.368C738.907 279.97 733.469 276.813 728.206 273.76C726.112 272.544 721.364 270.672 720.686 268.017C719.832 264.672 735.399 265.69 737.656 265.573C745.515 265.187 753.352 264.485 761.164 263.608C772.053 262.38 783.129 261.246 794.064 262.579C799.269 263.222 804.403 264.567 809.678 264.041C814.707 263.538 819.303 261.246 824.321 260.719C834.344 259.667 844.952 261.585 854.987 262.076C861.665 262.404 869.197 261.655 875.548 264.181C881.898 266.708 886.74 271.69 891.769 276.087C897.418 281.035 903.126 285.9 908.88 290.719C920.681 300.625 932.622 310.344 944.47 320.18C955.71 329.525 966.247 339.606 977.311 349.138C980.13 351.559 995.054 358.893 991.077 363.992C990.867 364.261 990.563 364.425 990.259 364.588C986.867 366.401 982.235 366.027 978.423 366.612Z" fill="#C23D31"/>
<g id="Group">
<path id="Vector_2" d="M1118.57 492.398C1116.09 490.293 1111.65 488.176 1110.88 484.679C1110.03 480.866 1113.27 476.258 1113.85 472.492C1114.51 468.025 1113.13 463.44 1112.78 458.972C1112.38 453.849 1112.05 448.809 1110.81 443.803C1106.45 426.213 1095.55 411.745 1083.57 398.599C1079.55 394.202 1080.57 387.98 1077.23 383.149C1075.7 380.939 1073.43 379.301 1070.84 378.553C1069.09 378.05 1067.47 378.296 1065.71 378.202C1062.33 378.038 1061.02 376.705 1058.6 374.728C1056.65 373.138 1053.7 372.869 1052 371.255C1050.15 369.489 1050.5 366.074 1050.81 363.968C1051.73 357.653 1051.63 349.711 1049.36 343.665C1046.65 336.437 1040.61 334.519 1034.28 331.455C1031.35 330.028 1028.66 328.461 1025.24 329.127C1023.81 329.408 1022.6 330.063 1021.54 331.057C1020.33 332.203 1019.99 334.612 1018.37 334.414C1014.34 333.899 1015.43 324.309 1015.01 321.151C1014.5 317.279 1013.29 313.607 1011.64 310.075C1010.01 306.59 1007.9 303.35 1005.32 300.485C1002.31 297.116 998.247 295.151 995.124 291.935C992.106 288.824 991.978 286.812 992.457 282.707C992.797 279.865 993.089 276.965 992.083 274.216C990.34 269.421 985.884 267.889 981.194 267.538C979.194 267.386 977.066 267.643 975.101 267.21C971.686 266.45 969.815 263.327 967.709 260.754C961.628 253.328 953.476 252.942 945.803 248.17C941.57 245.538 937.605 242.264 933.57 239.316C929.511 236.346 927.979 233.492 925.254 229.492C922.436 225.34 920.471 223.223 919.851 218.042C919.254 213.024 917.664 208.206 916.962 203.2C915.792 194.803 918.19 184.054 912.705 176.873C910.225 173.622 907.196 173.166 903.734 171.47C899.22 169.259 899.091 163.423 899.091 158.932C899.091 155.014 899.98 151.19 899.442 147.283C898.775 142.5 895.957 138.64 894.892 134.009C892.939 125.529 891.442 115.307 886.249 108.091C882.694 103.144 877.828 98.5592 871.419 98.6762C866.94 98.758 858.729 99.5299 855.478 103.167C853.197 105.729 855.887 110.957 852.975 105.939C850.8 102.197 849.56 98.0095 848.624 93.7991C846.847 85.7875 846.367 77.5421 844.543 69.5306C842.87 62.2091 839.934 55.5894 835.034 49.8702C833.011 47.5077 831.876 45.7885 831.689 42.7476C831.549 40.3734 831.864 37.8939 831.806 35.508C831.701 30.7245 831.163 25.9526 829.327 21.5083C827.982 18.2452 826.005 15.4149 823.35 13.0874C821.97 11.8828 820.461 11.0758 819.853 9.29804C819.245 7.5203 819.818 5.27474 819.151 3.33326C818.45 1.30991 816.976 0.350869 814.917 0.116956C805.526 -0.947347 800.064 8.98226 797.386 16.5026C795.655 21.3446 795.128 26.5023 793.596 31.3911C791.643 37.6249 788.392 43.4493 787.526 49.9989C786.696 56.3379 790.93 62.6068 788.836 68.4546C787.784 71.4019 785.772 73.8814 784.614 76.7819C783.117 80.5128 783.234 84.0332 783.62 87.9512C784.287 94.7464 784.474 101.331 784.509 108.161C784.544 114.746 788.111 118.711 789.503 124.816C792.298 137.061 781.398 149.424 777.679 160.406C776.649 163.447 776.252 167.049 774.731 169.903C773.445 172.324 770.942 174.066 769.269 176.23C765.047 181.692 765.995 189.165 759.878 193.235C755.901 195.879 749.48 200.124 745.223 196.814C741.328 193.785 738.697 189.89 733.644 188.592C731.036 187.926 727.212 188.616 724.896 187.271C722.487 185.867 721.89 182.347 720.569 180.125C717.598 175.119 713.084 173.973 707.692 173.119C695.224 171.154 690.429 157.763 680.605 151.47C675.634 148.289 671.739 150.195 666.5 150.371C663.213 150.488 661.693 148.125 659.74 145.868C657.67 143.482 655.681 141.704 652.921 140.114C646.991 136.675 641.845 132.465 636.43 128.278C633.541 126.044 631.074 124.804 630.571 120.874C630.126 117.377 631.775 112.489 633.027 109.272C635.167 103.775 639.927 99.5767 641.553 93.9394C642.325 91.2494 641.81 89.2027 641.272 86.5244C640.021 80.3257 643.471 83.7408 646.804 83.9747C652.36 84.3607 653.307 79.8696 655.365 75.9398C658.383 70.1856 660.792 65.3319 660.441 58.6186C660.126 52.6304 658.453 46.958 659.494 40.9348C660.406 35.7068 659.903 31.1104 654.465 28.7947C647.003 25.6252 635.787 30.6894 634.793 39.0752C634.477 41.7067 634.407 44.3616 634.15 47.0048C634.15 47.0165 634.15 47.0399 634.15 47.0516C633.986 46.3615 633.775 45.6832 633.46 45.0165C631.214 40.233 626.255 38.9348 621.577 40.8178C619.366 41.7067 617.132 44.1043 614.84 44.6072C611.554 45.3206 609.308 41.4026 606.84 39.7652C601.039 35.8939 596.314 38.0576 589.952 38.3617C582.045 38.736 575.215 35.9641 568.338 32.3852C561.473 28.8064 554.42 26.514 546.994 24.4439C542 23.0521 532.386 15.0523 526.351 16.9236C525.228 16.8534 524.105 17.2394 523.228 17.9294C520.866 18.9586 519.532 21.3796 519.871 24.7246C520.515 30.8765 525.661 39.9523 517.135 43.4961C508.456 47.1101 493.17 36.046 489.615 49.7884C489.299 51.0164 489.65 56.7239 488.843 57.3437C488.165 57.8701 484.457 55.8818 483.089 55.6596C478.27 54.8643 474.539 57.4958 472.633 61.7647C471.791 63.636 471.463 65.7061 470.586 67.554C469.182 70.513 466.481 72.665 464.2 74.9106C459.639 79.4017 457.908 84.2437 456.341 90.3021C454.809 96.2201 451.393 98.6177 447.99 103.167C444.902 107.308 444.633 111.892 445.475 116.863C445.908 119.389 447.241 121.307 443.464 121.027C441.043 120.839 438.189 118.477 436.049 117.459C430.294 114.723 424.096 116.068 418.47 112.863C413.043 109.764 409.546 104.816 404.95 100.781C400.868 97.2025 396.155 95.378 390.822 94.6762C380.272 93.2845 366.284 93.5535 357.758 100.852C354.764 103.413 351.208 111.927 347.279 112.535C345.887 112.746 343.396 111.471 341.829 111.495C339.291 111.541 336.87 112.383 334.87 113.916C331.525 116.465 330.145 120.43 328.753 124.255C327.817 126.839 327.806 128.909 324.987 128.675C321.841 128.418 319.396 126.582 315.958 127.003C311.104 127.599 306.905 131.167 305.514 135.868C303.876 141.412 306.742 145.962 307.981 151.178C308.8 154.616 307.701 156.874 305.993 159.821C305.946 159.903 305.502 160.663 305.104 161.365C304.847 160.301 304.145 158.956 304.192 159.049C301.794 154.698 297.093 152.64 292.262 153.891C287.947 155.014 284.04 158.254 281.994 162.195C279.187 167.61 282.789 172.558 281.163 177.832C279.198 184.195 277.97 173.973 277 171.973C274.906 167.68 270.672 164.768 265.795 166.452C260.754 168.183 257.983 174.277 253.784 177.306C249.047 180.709 245.176 184.721 243.737 190.557C242.533 195.434 243.211 200.674 244.685 205.411C245.281 207.317 247.737 210.931 247.421 213.013C247.152 214.849 245.035 215.937 243.655 217.059C234.205 224.662 233.878 237.34 226.86 246.649C221.878 253.246 215.808 254.661 207.984 255.047C201.013 255.386 193.867 255.889 187.364 258.637C184.429 259.877 182.171 261.444 179.867 263.655C177.283 266.123 176.37 267.83 173.014 265.491C168.265 262.181 164.663 262.719 160.125 266.24C157.037 268.637 153.985 271.643 150.195 272.93C146.582 274.158 142.558 273.514 138.827 274.111C132.57 275.093 127.073 279.736 122.149 283.76C119.062 283.912 116.103 284.485 113.073 285.245C107.565 286.625 103.506 286.146 97.9159 285.175C89.5769 283.736 82.735 285.233 76.2205 290.625C70.0452 295.736 65.4956 302.438 59.7881 308.016C52.7357 314.929 42.7944 318.858 33.5314 321.759C25.3328 324.32 16.409 324.811 11.45 332.776C6.26887 341.115 8.46765 350.203 9.21617 359.325C10.5495 375.395 -1.3333 389.547 1.95317 405.827C3.73091 414.669 10.5144 420.868 12.9588 429.406C13.9997 433.055 15.5201 435.756 17.9879 438.633C18.5259 439.253 19.0756 439.826 19.6487 440.364C19.4499 440.364 19.2861 440.364 19.1809 440.353C16.6897 440.131 14.1517 439.733 11.6489 439.745C5.46187 439.791 1.883 443.639 0.526304 449.51C-3.15782 465.533 11.1459 479.206 17.3096 492.679C19.8358 498.199 19.9294 502.538 20.0814 508.468C20.1984 512.632 20.7598 516.807 22.5609 520.597C24.1515 523.965 26.6193 526.561 29.3678 529.017C33.5899 532.795 35.5548 534.877 36.4787 540.631C37.3325 545.976 40.3149 550.187 41.8587 555.251C43.4844 560.607 43.1569 566.327 43.6949 571.835C44.7709 582.654 49.3907 592.045 53.2269 602.057C61.7062 624.185 61.9167 648.792 63.367 672.149C63.7179 677.751 72.4896 677.798 72.1387 672.149C70.6534 648.418 70.478 623.156 62.022 600.63C57.9051 589.683 52.9462 579.73 52.1743 567.859C51.8117 562.21 51.6714 556.432 49.6714 551.064C48.9463 549.099 47.8586 547.321 47.0165 545.415C45.4727 541.906 45.3908 538.444 44.5253 534.818C42.0225 524.421 29.8122 521.754 28.935 510.375C28.5608 505.451 29.3444 500.667 27.976 495.825C26.5257 490.726 23.8357 485.58 21.1808 481.018C16.6078 473.182 8.40917 464.107 8.65478 454.493C8.78343 449.429 9.83604 448.376 14.3973 448.727C17.2628 448.937 20.1282 449.358 23.0053 449.464C27.8824 449.639 34.9466 447.826 32.5256 441.323C31.204 437.768 27.1573 435.487 24.7246 432.844C21.2159 429.043 21.1691 424.143 18.8534 419.651C16.2569 414.622 12.2453 410.739 10.7717 405.102C9.49686 400.225 10.222 395.208 11.4734 390.412C13.8827 381.184 17.9411 372.366 18.1049 362.67C18.292 351.396 11.988 336.484 26.9935 332.706C38.1863 329.887 49.4843 326.098 59.18 319.7C67.0979 314.461 72.3376 306.601 78.9807 299.993C81.7759 297.21 85.0273 294.251 89.0273 293.467C95.5651 292.192 102.185 295.771 108.84 295.046C113.307 294.555 117.494 292.8 121.986 292.473C127.015 292.099 130.687 288.765 134.593 285.619C140.009 281.257 146.289 283.339 152.535 281.409C157.295 279.935 161.096 276.579 164.944 273.561C167.505 271.561 167.248 272.24 169.54 273.83C171.014 274.859 172.499 275.678 174.3 275.947C178.721 276.602 182.019 273.854 184.99 270.988C193.516 262.754 205.212 264.649 216.112 263.421C224.451 262.485 231.773 255.702 235.983 248.766C240.439 241.41 241.515 230.708 247.971 224.849C253.374 219.937 258.006 216.65 255.234 208.568C253.679 204.054 251.503 199.738 251.912 194.803C252.474 188.089 257.702 185.972 262.216 182.066C263.971 180.546 265.035 178.125 266.778 176.721C269.959 174.136 269.608 178.066 270.31 180.464C271.245 183.692 273.035 186.815 276.216 188.241C282.66 191.13 288.344 185.516 289.76 179.552C290.73 175.423 288.368 170.99 289.42 167.154C289.865 165.505 292.555 162.254 294.59 162.382C297.21 162.546 297.795 167.037 299.303 168.756C301.572 171.341 305.993 172.698 309.092 170.756C312.204 168.803 314.496 163.131 315.864 159.856C317.478 155.961 317.42 152.219 316.215 148.231C314.952 144.067 310.437 133.529 319.958 136.091C323.911 137.155 327.069 139.588 331.08 136.898C334.343 134.71 335.688 130.746 336.975 127.249C338.507 123.073 339.162 120.161 344.016 120.734C347.805 121.19 349.875 121.635 353.244 119.19C357.091 116.383 359.01 112.138 362.202 108.758C366.319 104.395 372.904 103.343 378.635 103.027C382.962 102.781 387.687 102.77 391.921 103.74C397.301 104.957 400.248 108.676 403.968 112.407C407.394 115.834 411.266 119.132 415.605 121.354C420.423 123.81 424.786 123.307 429.78 124.418C434.341 125.424 437.791 129.108 442.563 129.775C446.189 130.278 450.516 129.447 452.961 126.512C455.101 123.939 454.996 120.781 454.493 117.646C453.627 112.243 453.604 109.869 457.417 105.951C460.118 103.179 462.27 100.197 463.615 96.5359C465.709 90.8518 465.861 85.7174 470.375 81.1795C473.486 78.0567 476.738 75.1094 478.609 71.0277C479.276 69.5774 479.428 67.7763 480.2 66.4079C481.942 63.3436 483.568 65.4254 486.457 66.1389C490.106 67.0394 493.685 65.8348 495.837 62.7237C497.006 61.0279 497.509 59.0747 497.743 57.0514C498.164 53.3555 496.889 50.572 501.79 51.4491C509.579 52.8292 518.947 54.9695 525.462 48.6656C528.596 45.6364 530.234 40.8646 530.713 36.6191C530.947 34.5489 530.877 32.5373 530.468 30.4905C530.327 29.7654 529.684 26.9935 529.052 25.555C529.076 25.5433 529.099 25.5316 529.123 25.5199C531.333 26.0813 536.292 29.5198 538.046 30.4204C543.087 33.0051 548.666 33.894 553.999 35.6834C566.689 39.9523 576.724 48.1159 590.852 47.1568C593.39 46.9814 596.244 45.8469 598.712 45.9639C601.963 46.1276 603.846 49.11 606.197 50.8994C610.22 53.9637 614.805 54.4198 619.343 52.186C620.454 51.6363 623.846 48.6422 624.875 48.9229C626.664 49.4141 625.612 54.3731 625.717 55.6362C626.044 59.4373 627.998 63.5307 631.904 64.7822C638.524 66.8874 641.073 59.1215 641.951 54.1976C642.547 50.8994 642.851 47.5545 643.12 44.2212C643.448 40.0927 642.547 38.5021 647.19 37.0986C651.787 35.7185 650.921 38.1161 650.488 41.7067C650.138 44.6423 650.266 47.496 650.605 50.4316C651.483 57.9051 652.418 63.2384 648.629 70.1388C648.079 71.1329 647.447 72.0335 646.956 73.0627C646.804 73.4136 646.664 73.7644 646.512 74.1153C646.383 74.396 646.278 74.6182 646.184 74.8287C644.114 74.4077 642.722 73.1797 640.313 73.472C635.822 74.0334 632.805 77.9164 632.185 82.2087C631.717 85.4016 633.577 88.6296 633.05 91.6822C632.594 94.3722 629.612 96.9569 628.232 99.2492C624.922 104.699 622.84 110.898 622.08 117.214C621.472 122.266 621.483 127.705 625.612 131.295C630.699 135.716 636.536 139.915 642.044 143.845C644.559 145.634 647.506 146.815 649.974 148.593C652.161 150.172 653.541 152.464 655.401 154.371C659.155 158.219 663.459 159.926 668.78 158.885C672.675 158.125 674.769 158.02 678.137 160.885C680.102 162.558 681.774 164.64 683.517 166.534C695.306 179.376 691.142 200.346 690.885 216.019L690.23 257.573C689.914 277.479 689.587 298.064 688.289 318.203C687.762 326.367 688.183 332.472 688.64 338.928C688.92 342.975 689.213 347.174 689.283 352.121C689.423 362.354 689.119 372.787 688.827 382.88C688.64 389.29 688.452 395.909 688.371 402.459C688.336 405.172 688.23 407.968 688.113 410.681C687.821 417.862 687.517 425.277 688.593 432.762C691.295 451.581 700.92 452.797 716.417 452.621C719.434 452.575 722.978 452.621 726.381 453.136C728.838 453.51 731.27 454.083 733.843 454.68C740.159 456.142 746.685 457.662 753.936 456.376C755.094 456.165 756.439 455.838 757.854 455.487C761.41 454.61 768.661 452.809 770.474 454.727C770.486 454.867 770.497 455.042 770.497 455.148C770.965 463.463 771.187 471.966 771.41 480.188C771.538 484.726 771.655 489.264 771.819 493.802C771.913 496.387 771.796 499.568 771.667 502.948C771.339 511.93 770.954 522.105 774.041 529.228C777.281 536.701 786.029 541.099 793.959 539.251C825.713 531.848 859.817 534.912 892.787 537.871C921.102 540.421 950.388 543.052 978.692 539.239L978.984 539.204C986.294 538.222 993.861 537.204 1001.08 534.339C1006.25 532.292 1012 531.169 1017.57 530.082C1020.34 529.544 1023.51 528.444 1026.48 528.877C1029.74 529.357 1033.1 530.725 1036.14 531.976C1037.4 532.491 1038.71 532.994 1040.05 533.509C1045.31 535.509 1050.75 537.59 1053.84 541.298C1056.57 544.584 1062.03 549.941 1068.61 549.941C1068.89 549.941 1069.17 549.941 1069.46 549.906C1072.32 549.707 1076.42 548.339 1079.73 542.982C1081.99 539.321 1082.74 535.614 1083.33 532.631C1084.34 527.661 1084.55 526.631 1088.84 526.14C1099.23 524.947 1107.81 522.164 1117.4 516.784C1117.1 519.953 1116.57 523.111 1116.16 526.199C1115.71 529.602 1115.29 533.017 1114.47 536.362C1113.55 540.117 1111.34 543.111 1110.23 546.748C1108.29 553.157 1110.23 559.648 1109.93 566.151C1109.73 570.525 1107.71 574.268 1106.17 578.268C1104.51 582.595 1103.09 587.016 1102.13 591.554C1100.3 600.162 1102.06 609.483 1099.48 617.787C1096.95 625.939 1089.88 631.506 1086.65 639.296C1085.31 642.535 1085.66 645.869 1084.54 649.062C1083.27 652.64 1079.67 655.143 1077.36 658.032C1074.63 661.435 1072.65 665.272 1070.4 668.991C1067.99 672.956 1065.06 675.763 1061.61 678.792C1055.72 683.973 1053.09 688.838 1052.06 696.604C1050.81 706.089 1045.09 714.499 1041.51 723.282C1034.21 741.2 1027.91 758.802 1023.42 777.667C1022.11 783.152 1030.56 785.491 1031.87 779.994C1036.64 759.948 1043.33 741.024 1051.42 722.077C1055.12 713.376 1059.56 706.113 1060.82 696.593C1062.06 687.283 1070.77 683.914 1075.8 676.78C1078.48 673.002 1080.35 668.71 1083.05 664.944C1085.44 661.611 1088.79 659.085 1091 655.634C1092.78 652.863 1093.18 650.032 1093.65 646.851C1094.35 642.114 1096.88 638.512 1099.65 634.734C1105.03 627.401 1109.11 620.126 1109.4 610.793C1109.72 600.782 1110.45 591.998 1113.9 582.478C1115.51 578.046 1117.74 573.917 1118.4 569.204C1118.97 565.04 1118.4 560.947 1118.15 556.783C1117.65 548.456 1122.74 541.111 1124.01 532.83C1126.03 519.684 1130.1 502.422 1118.44 492.527L1118.57 492.398ZM1054.19 382.553C1056.37 384.436 1058.18 386.471 1061.15 387.102C1064.29 387.769 1068.01 385.664 1070.26 388.518C1071.57 390.19 1071.6 393.336 1072.08 395.336C1073.54 401.313 1077.3 404.576 1081.27 409.055C1086.6 415.055 1091.4 421.523 1095.3 428.54C1099.37 435.873 1102.47 443.897 1103.48 452.259C1104.33 459.136 1105.67 466.224 1104.41 473.136C1103.36 478.866 1099.24 479.241 1093.99 479.019C1090.02 478.855 1086.05 478.785 1082.07 478.504C1074.44 477.954 1066.84 476.492 1060.22 472.457C1053.02 468.071 1046.39 462.808 1039.04 458.645C1035.3 456.516 1031.45 454.855 1027.37 453.487C1024.73 452.598 1021.79 450.551 1020.57 447.896C1019.38 445.312 1019.38 441.651 1018.99 438.844C1017.46 427.745 1017.26 416.529 1016 405.406C1015.37 399.816 1014.47 394.225 1012.97 388.787C1012.23 386.097 1011.36 383.453 1010.29 380.869C1009.73 379.489 1006.74 375.571 1008.64 374.927C1013.19 373.383 1018.92 374.319 1023.81 374.459C1027.94 374.576 1032.07 374.682 1036.2 374.74C1038.12 374.764 1040.22 374.506 1042.07 375.114C1044.05 375.758 1045.38 377.395 1047.2 378.354C1049.73 379.687 1051.94 380.646 1054.15 382.553H1054.19ZM978.423 366.612C962.353 369.115 944.961 368.986 928.143 368.881C920.576 368.834 912.74 368.775 905.208 368.963C900.588 369.079 896.226 370.343 892.003 371.571C888.6 372.565 885.384 373.489 882.659 373.594C882.553 373.594 882.436 373.594 882.319 373.594C877.875 373.594 871.676 370.436 866.682 367.887C865.373 367.22 864.121 366.577 862.963 366.027C848.203 358.939 834.484 349.922 822.216 339.209C813.865 331.922 805.502 325.466 797.655 319.49C793.479 316.309 789.281 312.894 785.211 309.595C772.696 299.432 759.761 288.929 744.486 282.368C738.907 279.97 733.469 276.813 728.206 273.76C726.112 272.544 721.364 270.672 720.686 268.017C719.832 264.672 735.399 265.69 737.656 265.573C745.516 265.187 753.352 264.485 761.164 263.608C772.053 262.38 783.129 261.246 794.064 262.579C799.269 263.222 804.403 264.567 809.678 264.041C814.707 263.538 819.303 261.246 824.321 260.719C834.344 259.667 844.952 261.585 854.987 262.076C861.665 262.403 869.197 261.655 875.548 264.181C881.898 266.707 886.74 271.69 891.77 276.087C897.419 281.035 903.126 285.9 908.88 290.719C920.681 300.625 932.622 310.344 944.47 320.18C955.71 329.525 966.247 339.606 977.311 349.138C980.13 351.559 995.054 358.893 991.077 363.992C990.867 364.261 990.563 364.425 990.259 364.588C986.867 366.401 982.235 366.027 978.423 366.612ZM975.861 276.076C979.826 276.427 984.212 274.824 984.025 279.959C983.849 284.871 982.528 289.046 985.218 293.596C989.136 300.239 996.75 302.952 1001.08 309.163C1006.06 316.309 1005.78 323.092 1007.02 331.267C1007.87 336.928 1011.09 342.565 1017.21 343.478C1019.78 343.864 1022.39 343.314 1024.49 341.747C1027.3 339.665 1026.21 337.478 1029.86 339.033C1032.14 340.004 1034.75 340.881 1036.88 342.109C1040.8 344.355 1041.7 347.712 1042.13 351.922C1042.46 355.103 1042.22 358.366 1041.87 361.536C1041.57 364.284 1040.57 364.939 1037.82 365.524C1033.31 366.483 1028.62 365.232 1024.08 365.103C1018.46 364.951 1011.59 365.922 1006.12 364.764C1001.73 363.84 1001.19 359.629 999.007 356.472C996.715 353.162 993.568 350.472 990.352 348.086C977.569 338.577 966.318 327.104 954.107 316.858C940.295 305.28 926.26 293.958 912.483 282.345C908.787 279.222 905.126 276.041 901.477 272.871C899.606 271.245 895.419 268.123 896.541 265.269C898.097 261.292 909.009 263.456 912.19 263.479C921.827 263.55 931.465 263.561 941.102 263.573C948.072 263.573 954.318 262.544 960.388 266.824C965.815 270.649 968.598 275.432 975.861 276.076ZM710.639 182.499C715.224 184.698 715.598 191.984 720.498 194.803C725.247 197.539 730.966 195.621 735.247 199.341C738.767 202.393 741.668 206.03 746.498 206.978C751.422 207.949 755.819 205.188 760.065 203.071C765.129 200.545 769.784 197.516 772.275 192.218C773.679 189.236 773.796 185.715 775.351 182.826C776.661 180.37 779.105 178.651 780.801 176.476C784.579 171.657 784.988 165.189 787.339 159.692C792.321 148.032 801.21 135.833 798.006 122.442C797.316 119.576 795.865 117.062 794.626 114.407C792.976 110.886 793.433 107.6 793.468 103.834C793.55 95.9628 790.205 85.9864 793.409 78.6883C796.473 71.7411 799.889 66.7587 797.514 58.9344C795.21 51.3673 797.397 46.1744 800.146 39.0284C802.555 32.7829 803.456 26.2918 805.491 19.9528C806.473 16.8885 808.286 11.9062 811.339 9.80095C811.432 11.146 811.573 12.4909 812.216 13.8126C813.502 16.4207 815.783 17.8125 817.818 19.7656C823.654 25.3328 823.362 34.3384 823.023 41.8002C822.707 48.7708 825.362 51.5076 829.49 56.7473C833.525 61.8583 835.408 67.9985 836.648 74.2907C838.894 85.6589 839.104 97.5417 844.274 108.15C846.402 112.5 850.016 118.348 855.665 117.763C860.577 117.261 862.542 113.167 862.94 108.898C866.25 107.495 871.021 106.758 873.723 107.822C881.22 110.781 883.98 124.231 885.559 131.073C886.273 134.172 886.413 137.307 887.571 140.301C889.08 144.184 891.021 146.991 890.927 151.33C890.764 158.534 889.442 166.008 892.916 172.768C893.933 174.733 895.29 176.522 897.091 177.821C900.038 179.961 904.494 179.832 906.412 183.177C908.564 186.92 907.372 193.013 907.617 197.189C907.898 201.972 908.564 206.779 909.594 211.457C910.927 217.492 910.939 224.486 914.483 229.738C917.956 234.895 921.126 240.416 925.956 244.474C928.283 246.427 935.453 248.135 934.377 251.842C932.926 256.86 920.822 254.755 917.067 254.731C907.781 254.684 898.506 254.591 889.22 254.415C877.793 254.193 866.378 253.854 854.975 253.293C844.893 252.801 834.391 251.082 824.309 251.936C819.526 252.345 815.303 254.17 810.637 255.035C805.081 256.076 799.561 254.439 794.041 253.795C783.07 252.521 772.053 253.585 761.141 254.825C751.621 255.901 742.065 256.708 732.487 257.012C725.142 257.246 712.113 259.374 705.283 256.462C695.025 252.076 700.183 224.779 700.324 215.96C700.417 209.75 695.961 175.47 710.627 182.487L710.639 182.499ZM791.924 530.023C788.368 530.854 784.158 528.725 782.708 525.392C780.462 520.222 780.813 510.772 781.094 503.182C781.222 499.626 781.351 496.281 781.246 493.357C781.082 488.843 780.965 484.34 780.848 479.826C780.626 471.545 780.392 462.972 779.924 454.516C779.866 453.44 779.76 451.651 778.684 449.92C773.655 441.826 762.404 444.622 755.679 446.294C754.416 446.61 753.223 446.902 752.381 447.054C747.013 448.013 741.679 446.774 736.042 445.464C733.411 444.856 730.697 444.224 727.89 443.791C723.808 443.16 719.785 443.125 716.382 443.171C702.593 443.359 699.622 442.984 697.938 431.335C696.99 424.716 697.259 418.037 697.54 410.973C697.657 408.201 697.774 405.336 697.809 402.494C697.891 396.026 698.078 389.442 698.265 383.067C698.558 372.881 698.862 362.354 698.721 351.91C698.651 346.694 698.347 342.367 698.055 338.191C697.622 332.051 697.224 326.25 697.715 318.718C698.324 309.373 698.71 300.017 698.99 290.66C699.177 284.298 696.663 269.807 707.563 272.894C713.048 274.45 718.58 279 723.493 281.853C729.001 285.046 734.685 288.356 740.79 290.964C754.872 296.999 767.293 307.093 779.304 316.847C783.421 320.192 787.678 323.654 791.971 326.917C799.701 332.811 807.923 339.15 816.064 346.25C828.976 357.512 843.396 366.998 858.916 374.448C860.016 374.974 861.197 375.582 862.437 376.214C867.408 378.752 875.325 381.36 876.144 387.722C877.279 396.623 877.676 405.71 878.261 414.669C879.442 432.762 880.132 450.902 880.331 469.03C880.483 483.124 880.331 497.217 879.887 511.299C879.711 516.714 880.928 522.608 875.302 525.474C870.881 527.719 865.571 526.117 860.905 525.848C853.186 525.403 845.455 525.134 837.724 525.17C822.344 525.24 806.918 526.515 791.912 530.012L791.924 530.023ZM1015.88 520.795C1009.9 521.965 1003.71 523.17 997.732 525.544C991.592 527.977 984.914 528.877 977.85 529.824L977.557 529.86C958.014 532.479 938.19 531.895 918.564 530.514C911.582 530.023 897.734 531.438 892.354 526.865C887.255 522.526 889.173 514.328 889.337 508.562C889.618 498.749 889.758 488.925 889.746 479.112C889.735 459.113 889.126 439.113 887.922 419.149C887.466 411.546 886.916 403.944 886.284 396.354C885.688 389.173 886.928 382.787 894.623 380.553C898.272 379.489 902.05 378.401 905.453 378.307C912.845 378.12 920.599 378.167 928.085 378.225C945.265 378.342 963.043 378.471 979.861 375.851C986.785 374.775 996.855 373.173 1000.77 380.623C1005.16 388.962 1006.57 398.693 1007.45 407.956C1008.63 420.505 1009.26 433.043 1011.22 445.511C1013.31 458.89 1016.53 472.001 1020.3 485.007C1022.34 492.001 1023.47 498.585 1023.1 505.895C1022.95 508.889 1023.66 513.369 1022.78 516.187C1021.99 518.772 1018.32 520.316 1015.9 520.784L1015.88 520.795ZM1087.88 516.725C1076.82 517.988 1075.34 525.322 1074.27 530.667C1073.74 533.263 1073.25 535.719 1071.87 537.953C1070.89 539.543 1069.89 540.386 1068.9 540.456C1066.97 540.608 1063.87 538.479 1061.13 535.193C1056.48 529.591 1049.57 526.971 1043.49 524.643C1042.22 524.164 1040.99 523.696 1039.8 523.205C1037.91 522.421 1034.56 521.965 1032.99 520.772C1031.43 519.579 1031.18 516.386 1031.08 514.573C1030.83 510.211 1032.01 505.755 1031.99 501.498C1031.95 494.656 1030.33 488.2 1028.44 481.673C1027.31 477.755 1026.23 473.814 1025.23 469.861C1024.66 467.627 1023.66 463.955 1026.91 463.089C1029.77 462.317 1035.39 466.609 1037.81 468.106C1044.98 472.563 1051.57 477.943 1059.05 481.884C1066.08 485.58 1073.94 486.703 1081.78 487.124C1085.67 487.334 1089.58 487.369 1093.47 487.568C1099.24 487.86 1102.44 489.568 1106.33 493.673C1109.02 496.515 1116.83 500.55 1115.18 505.041C1113.64 509.24 1108.89 510.784 1105.13 512.351C1099.61 514.655 1093.81 516.047 1087.88 516.725Z" fill="#D4D4DE" fill-opacity="0.4"/>
<path id="Vector_3" d="M481.79 29.1689C482.48 29.7186 483.135 30.2449 483.568 30.6777C483.907 31.0168 484.223 31.3911 484.539 31.7654C485.463 32.8414 486.609 34.1981 488.328 35.0752C489.603 35.7302 491.053 36.046 492.737 36.046C493.392 36.046 494.082 35.9992 494.819 35.8939C500.445 35.1337 507.147 31.4847 509.053 26.0111C509.79 23.8825 510.375 19.6604 506.047 15.1693C501.486 10.4442 496.913 11.8828 493.568 12.9354C492.819 13.1693 492.106 13.3915 491.392 13.5669C490.609 13.7541 489.662 13.7073 488.562 13.6488C486.714 13.5553 484.422 13.4266 482.083 14.526C480.796 15.1225 476.902 16.947 476.445 20.713C475.989 24.5258 479.217 27.0988 481.802 29.1806L481.79 29.1689ZM485.042 20.8767C485.79 20.5259 486.843 20.5843 488.188 20.6545C489.626 20.7247 491.264 20.8182 493.03 20.3855C493.989 20.1516 494.889 19.8709 495.685 19.6136C498.924 18.5844 499.556 18.5259 500.995 20.0229C502.983 22.0814 502.574 23.2509 502.421 23.6954C501.626 25.976 497.638 28.4204 493.884 28.935C492.504 29.1222 491.837 28.9701 491.533 28.8064C491.065 28.5725 490.504 27.9058 489.907 27.2041C489.498 26.7245 489.042 26.1865 488.515 25.6719C487.825 24.9819 486.995 24.3269 486.188 23.6837C485.51 23.1457 484.387 22.2451 483.767 21.5785C484.036 21.3913 484.445 21.1574 485.053 20.8767H485.042Z" fill="#D4D4DE" fill-opacity="0.4"/>
<path id="Vector_4" d="M456.832 36.2916C457.92 39.6015 460.738 41.6248 464.095 41.6248C464.563 41.6248 465.042 41.5897 465.533 41.5078C469.685 40.8178 472.644 37.3793 472.598 33.3443C472.574 31.3443 472.539 28.8532 471.615 26.4439C470.387 23.2509 467.779 20.9703 464.797 20.5142C463.686 20.3387 462.656 20.4674 461.756 20.8767C458.727 22.2451 458.738 25.5082 458.75 26.9702C458.75 27.8824 458.551 28.7947 458.153 29.6017C458.06 29.7888 457.966 29.9876 457.861 30.1748C457.124 31.5899 456.001 33.7419 456.844 36.2799L456.832 36.2916ZM464.071 33.4262C464.2 33.1688 464.34 32.9115 464.457 32.6659C464.843 31.8589 465.147 31.0169 465.37 30.1514C465.545 31.1689 465.557 32.3268 465.569 33.4495C465.569 34.2215 464.703 34.5372 464.376 34.5957C463.919 34.6776 463.721 34.5606 463.604 34.3852C463.709 34.1162 463.919 33.7185 464.071 33.4262Z" fill="#D4D4DE" fill-opacity="0.4"/>
<path id="Vector_5" d="M658.465 89.3079C657.365 88.805 656.325 88.7582 655.646 88.7115C653.67 88.6062 650.348 88.4308 647.682 90.4424C646.184 91.5769 645.307 93.0856 644.676 94.1967C643.904 95.5417 643.097 96.9452 642.418 98.4773C641.705 100.08 640.828 102.512 641.494 105.156C641.763 106.208 642.231 107.085 642.898 107.764C644.559 109.471 646.793 109.413 647.752 109.389C648.301 109.389 649.26 109.448 650.278 109.53C651.716 109.647 653.26 109.764 654.792 109.764C657.974 109.764 661.108 109.249 663.026 107.05C663.962 105.974 664.956 104.08 664.336 101.191C664.067 99.9393 663.599 98.8633 663.178 97.9042C662.886 97.2376 662.617 96.606 662.476 96.068C662.406 95.799 662.348 95.53 662.289 95.2493C661.927 93.5184 661.33 90.6295 658.477 89.3079H658.465ZM650.804 102.536C649.927 102.466 649.132 102.407 648.418 102.384C648.5 102.103 648.629 101.764 648.816 101.343C649.354 100.138 650.032 98.9451 650.757 97.6937C651.108 97.0855 651.541 96.3136 651.892 96.0563C652.512 95.6002 654.161 95.6704 655.202 95.7288C655.284 96.0212 655.354 96.3955 655.412 96.6762C655.494 97.0622 655.576 97.4481 655.67 97.8107C655.95 98.8984 656.36 99.8574 656.734 100.711C657.015 101.366 657.284 101.986 657.424 102.524C655.974 102.957 652.418 102.676 650.804 102.547V102.536Z" fill="#D4D4DE" fill-opacity="0.4"/>
<path id="Vector_6" d="M724.873 179.797C727.036 179.891 729.013 179.364 730.709 178.698C731.691 179.622 732.826 179.832 733.68 179.832C734.253 179.832 734.697 179.739 734.896 179.68C737.761 178.943 739.633 176.499 740.428 172.441C741.001 169.563 741.422 165.4 738.557 162.371C735.06 158.675 729.563 159.879 727.75 160.265C724.943 160.874 722.007 161.727 719.563 163.774C716.358 166.464 715.083 170.768 716.452 174.242C717.715 177.458 721.025 179.645 724.861 179.797H724.873ZM724.101 169.142C725.364 168.078 727.329 167.54 729.259 167.119C730.393 166.873 731.235 166.78 731.855 166.78C732.966 166.78 733.364 167.061 733.481 167.189C733.691 167.411 734.124 168.242 733.563 171.072C733.551 171.131 733.539 171.189 733.527 171.248C733.469 171.224 733.411 171.201 733.352 171.177C732.557 170.862 731.282 170.651 729.75 171.435C727.797 172.417 726.37 172.838 725.165 172.791C724.194 172.756 723.224 172.253 723.001 171.669C722.744 171.014 723.247 169.868 724.101 169.142Z" fill="#090E12"/>
<path id="Vector_7" d="M1110.17 426.844H1110.22C1114.96 426.809 1118.44 422.587 1119.81 415.254L1120.47 411.71C1120.85 409.605 1121.39 406.716 1120.5 403.862C1119.44 400.435 1115.9 397.36 1111.86 398.143C1110.41 398.424 1109.16 399.184 1108.33 400.272C1107.85 400.915 1107.58 401.57 1107.4 402.073C1107.1 402.938 1106.88 403.792 1106.67 404.623C1105.86 407.792 1105.04 408.178 1102.76 410.318C1102.13 410.915 1101.54 411.628 1101.38 412.482C1101.22 413.301 1101.45 414.143 1101.69 414.938C1102.12 416.365 1102.54 417.792 1102.96 419.219C1103.37 420.622 1103.79 422.049 1104.54 423.312C1105.69 425.289 1107.83 426.856 1110.16 426.856L1110.17 426.844ZM1108.56 415.453C1109.13 414.482 1110.13 413.441 1110.58 412.763C1112 410.693 1112.86 408.786 1113.48 406.353C1113.54 406.108 1113.6 405.874 1113.67 405.64C1113.73 405.734 1113.78 405.839 1113.81 405.956C1114.19 407.149 1113.86 408.891 1113.58 410.435L1112.92 413.991C1112.55 415.979 1112.14 419.663 1109.37 418.388C1108.69 418.084 1108.14 417.418 1108.14 416.669C1108.14 416.306 1108.31 415.885 1108.56 415.453Z" fill="#090E12"/>
<path id="Vector_8" d="M1116.54 469.019C1116.3 469.627 1116.24 470.2 1116.22 470.621C1116.17 471.358 1116.2 472.071 1116.22 472.761C1116.26 473.978 1116.29 475.229 1115.89 475.685C1115.8 475.802 1115.68 475.896 1115.57 475.989C1115.23 476.293 1114.76 476.726 1114.35 477.311C1113.07 479.194 1113.38 481.393 1113.54 482.574C1113.81 484.539 1115.25 486.539 1117.4 487.919C1119.55 489.311 1121.92 489.779 1123.87 489.217C1123.88 489.217 1123.89 489.217 1123.9 489.217C1127.57 488.141 1129.34 484.083 1128.77 478.095L1128.49 475.194C1128.33 473.475 1128.1 471.112 1126.77 469.089C1125.18 466.668 1121.76 465.066 1118.79 466.574C1117.73 467.112 1116.92 467.978 1116.52 469.019H1116.54ZM1119.07 480.469C1119.14 480.399 1119.27 480.282 1119.37 480.2C1119.59 480.001 1119.87 479.744 1120.15 479.428C1122.03 477.299 1121.95 474.679 1121.89 472.586C1121.89 472.387 1121.88 472.188 1121.88 472.001C1121.95 472.06 1122.01 472.13 1122.06 472.212C1122.62 473.054 1122.75 474.481 1122.88 475.744L1123.16 478.644C1123.46 481.825 1122.79 483.662 1122.34 483.79C1122.17 483.837 1121.53 483.79 1120.7 483.299C1119.76 482.749 1119.25 482.048 1119.18 481.802C1119.14 481.533 1119.04 480.773 1119.1 480.469H1119.07Z" fill="#090E12"/>
<path id="z" d="M1054.2 368.46C1055.56 372.226 1058.87 374.88 1062.16 374.88C1062.26 374.88 1062.35 374.88 1062.46 374.88C1065.37 374.74 1067.64 372.623 1068.51 369.22C1069.23 366.448 1069.99 362.308 1068.41 358.343C1068.22 357.863 1067.64 356.413 1066.26 355.419C1064.48 354.121 1062.47 354.261 1061.39 354.343C1059.88 354.448 1055.86 354.752 1054.09 358.156C1053.34 359.606 1053.33 361.103 1053.32 361.91C1053.3 363.992 1053.39 366.226 1054.2 368.46ZM1059.43 361.115C1059.68 360.588 1059.96 360.074 1060.02 359.501C1060.51 359.501 1060.92 359.091 1061.4 358.998C1065.24 358.203 1064.69 367.302 1062.13 368.354C1061.98 368.413 1061.81 368.354 1061.67 368.272C1059.68 367.302 1058.78 364.67 1058.96 362.495C1058.99 362.004 1059.2 361.559 1059.43 361.115Z" fill="#090E12"/>
<path id="Vector_9" d="M1118.57 492.398C1116.09 490.293 1111.65 488.176 1110.88 484.679C1110.03 480.866 1113.27 476.258 1113.85 472.492C1114.51 468.025 1113.13 463.44 1112.78 458.972C1112.38 453.849 1112.05 448.809 1110.81 443.803C1106.45 426.213 1095.55 411.745 1083.57 398.599C1079.55 394.202 1080.57 387.98 1077.23 383.149C1075.7 380.939 1073.43 379.301 1070.84 378.553C1069.09 378.05 1067.47 378.296 1065.71 378.202C1062.33 378.038 1061.02 376.705 1058.6 374.728C1056.65 373.138 1053.7 372.869 1052 371.255C1050.15 369.489 1050.5 366.074 1050.81 363.968C1051.73 357.653 1051.63 349.711 1049.36 343.665C1046.65 336.437 1040.61 334.519 1034.28 331.455C1031.35 330.028 1028.66 328.461 1025.24 329.127C1023.81 329.408 1022.6 330.063 1021.54 331.057C1020.33 332.203 1019.99 334.612 1018.37 334.414C1014.34 333.899 1015.43 324.309 1015.01 321.151C1014.5 317.279 1013.29 313.607 1011.64 310.075C1010.01 306.59 1007.9 303.35 1005.32 300.485C1002.31 297.116 998.247 295.151 995.124 291.935C992.106 288.824 991.978 286.812 992.457 282.707C992.797 279.865 993.089 276.965 992.083 274.216C990.34 269.421 985.884 267.889 981.194 267.538C979.195 267.386 977.066 267.643 975.101 267.21C971.686 266.45 969.815 263.327 967.709 260.754C961.628 253.328 953.476 252.942 945.803 248.17C941.57 245.538 937.605 242.264 933.57 239.316C929.511 236.346 927.979 233.492 925.254 229.492C922.436 225.34 920.471 223.223 919.851 218.042C919.254 213.024 917.664 208.206 916.962 203.2C915.792 194.803 918.19 184.054 912.705 176.873C910.225 173.622 907.196 173.166 903.734 171.47C899.22 169.259 899.091 163.423 899.091 158.932C899.091 155.014 899.98 151.19 899.442 147.283C898.775 142.5 895.957 138.64 894.892 134.009C892.939 125.529 891.442 115.307 886.249 108.091C882.694 103.144 877.828 98.5592 871.419 98.6762C866.94 98.758 858.729 99.5299 855.478 103.167C853.197 105.729 855.887 110.957 852.975 105.939C850.8 102.197 849.56 98.0095 848.624 93.7991C846.847 85.7875 846.367 77.5421 844.543 69.5306C842.87 62.2091 839.934 55.5894 835.034 49.8702C833.011 47.5077 831.876 45.7885 831.689 42.7476C831.549 40.3734 831.864 37.8939 831.806 35.508C831.701 30.7245 831.163 25.9526 829.327 21.5083C827.982 18.2452 826.005 15.4149 823.35 13.0874C821.97 11.8828 820.461 11.0758 819.853 9.29804C819.245 7.5203 819.818 5.27474 819.151 3.33326C818.45 1.30991 816.976 0.350869 814.917 0.116956C805.526 -0.947347 800.064 8.98226 797.386 16.5026C795.655 21.3446 795.128 26.5023 793.596 31.3911C791.643 37.6249 788.392 43.4493 787.526 49.9989C786.696 56.3379 790.93 62.6068 788.836 68.4546C787.784 71.4019 785.772 73.8814 784.614 76.7819C783.117 80.5128 783.234 84.0332 783.62 87.9512C784.287 94.7464 784.474 101.331 784.509 108.161C784.544 114.746 788.111 118.711 789.503 124.816C792.298 137.061 781.398 149.424 777.679 160.406C776.649 163.447 776.252 167.049 774.731 169.903C773.445 172.324 770.942 174.066 769.269 176.23C765.047 181.692 765.995 189.165 759.878 193.235C755.901 195.879 749.48 200.124 745.223 196.814C741.328 193.785 738.697 189.89 733.644 188.592C731.036 187.926 727.212 188.616 724.896 187.271C722.487 185.867 721.89 182.347 720.569 180.125C717.598 175.119 713.084 173.973 707.692 173.119C703.645 172.476 698.885 168.815 694.651 170.066C693.049 170.546 692.09 172.183 691.528 173.762C689.201 180.312 691.879 187.855 691.856 194.686C691.832 201.516 691.049 208.873 690.944 215.972L690.289 257.526C689.973 277.432 689.645 298.017 688.347 318.157C687.821 326.32 688.242 332.425 688.698 338.881C688.979 342.928 689.271 347.127 689.341 352.074C689.482 362.308 689.178 372.74 688.885 382.834C688.698 389.243 688.511 395.863 688.429 402.412C688.394 405.125 688.289 407.921 688.172 410.634C687.879 417.815 687.575 425.23 688.651 432.715C691.353 451.534 700.978 452.75 716.475 452.575C719.493 452.528 723.036 452.575 726.44 453.089C728.896 453.464 731.329 454.037 733.902 454.633C740.217 456.095 746.744 457.616 753.995 456.329C755.153 456.118 756.498 455.791 757.913 455.44C761.468 454.563 768.72 452.762 770.533 454.68C770.544 454.82 770.556 454.996 770.556 455.101C771.024 463.417 771.246 471.919 771.468 480.141C771.597 484.679 771.714 489.217 771.877 493.755C771.971 496.34 771.854 499.521 771.725 502.901C771.398 511.883 771.012 522.058 774.1 529.181C777.339 536.655 786.088 541.052 794.017 539.204C825.771 531.801 859.876 534.865 892.846 537.824C921.161 540.374 950.447 543.005 978.75 539.193L979.042 539.158C986.352 538.175 993.919 537.158 1001.14 534.292C1006.3 532.245 1012.06 531.123 1017.63 530.035C1020.4 529.497 1023.57 528.398 1026.54 528.83C1029.8 529.31 1033.16 530.678 1036.2 531.93C1037.46 532.444 1038.77 532.947 1040.11 533.462C1045.37 535.462 1050.81 537.544 1053.89 541.251C1056.63 544.538 1062.09 549.894 1068.67 549.894C1068.95 549.894 1069.23 549.894 1069.52 549.859C1072.37 549.66 1076.48 548.292 1079.79 542.935C1082.05 539.274 1082.79 535.567 1083.39 532.585C1084.4 527.614 1084.61 526.585 1088.9 526.094C1097.92 525.053 1107.64 523.006 1114.99 517.38C1118.58 514.632 1121.39 511.041 1122.91 506.761C1125.05 500.702 1123.46 496.679 1118.52 492.48L1118.57 492.398ZM1054.19 382.553C1056.37 384.436 1058.18 386.471 1061.15 387.102C1064.29 387.769 1068.01 385.664 1070.26 388.518C1071.57 390.19 1071.6 393.336 1072.08 395.336C1073.54 401.313 1077.3 404.576 1081.27 409.055C1086.6 415.055 1091.4 421.523 1095.3 428.54C1099.37 435.873 1102.47 443.897 1103.48 452.259C1104.33 459.136 1105.67 466.224 1104.41 473.136C1103.36 478.866 1099.24 479.241 1093.99 479.019C1090.02 478.855 1086.05 478.785 1082.07 478.504C1074.44 477.954 1066.84 476.492 1060.22 472.457C1053.02 468.071 1046.39 462.808 1039.04 458.645C1035.3 456.516 1031.45 454.855 1027.37 453.487C1024.73 452.598 1021.79 450.551 1020.57 447.896C1019.38 445.312 1019.38 441.651 1018.99 438.844C1017.46 427.745 1017.26 416.529 1016 405.406C1015.37 399.816 1014.47 394.225 1012.97 388.787C1012.23 386.097 1011.36 383.453 1010.29 380.869C1009.73 379.489 1006.74 375.571 1008.64 374.927C1013.19 373.383 1018.92 374.319 1023.81 374.459C1027.94 374.576 1032.07 374.682 1036.2 374.74C1038.12 374.764 1040.22 374.506 1042.07 375.114C1044.05 375.758 1045.38 377.395 1047.2 378.354C1049.73 379.687 1051.94 380.646 1054.15 382.553H1054.19ZM978.423 366.612C962.353 369.115 944.961 368.986 928.143 368.881C920.576 368.834 912.74 368.775 905.208 368.963C900.588 369.079 896.226 370.343 892.003 371.571C888.6 372.565 885.384 373.489 882.659 373.594C882.553 373.594 882.436 373.594 882.32 373.594C877.875 373.594 871.676 370.436 866.682 367.887C865.373 367.22 864.121 366.577 862.963 366.027C848.203 358.939 834.484 349.922 822.216 339.209C813.865 331.922 805.502 325.466 797.655 319.49C793.479 316.309 789.281 312.894 785.211 309.595C772.696 299.432 759.761 288.929 744.486 282.368C738.907 279.97 733.469 276.813 728.206 273.76C726.112 272.544 721.364 270.672 720.686 268.017C719.832 264.672 735.399 265.69 737.656 265.573C745.516 265.187 753.352 264.485 761.164 263.608C772.053 262.38 783.129 261.246 794.064 262.579C799.269 263.222 804.403 264.567 809.678 264.041C814.707 263.538 819.303 261.246 824.321 260.719C834.344 259.667 844.952 261.585 854.987 262.076C861.665 262.403 869.197 261.655 875.548 264.181C881.898 266.707 886.74 271.69 891.77 276.087C897.419 281.035 903.126 285.9 908.88 290.719C920.681 300.625 932.622 310.344 944.47 320.18C955.71 329.525 966.247 339.606 977.312 349.138C980.13 351.559 995.054 358.893 991.077 363.992C990.867 364.261 990.563 364.425 990.259 364.588C986.867 366.401 982.235 366.027 978.423 366.612ZM975.861 276.076C979.826 276.427 984.212 274.824 984.025 279.959C983.849 284.871 982.528 289.046 985.218 293.596C989.136 300.239 996.75 302.952 1001.08 309.163C1006.06 316.309 1005.78 323.092 1007.02 331.267C1007.87 336.928 1011.09 342.565 1017.21 343.478C1019.78 343.864 1022.39 343.314 1024.49 341.747C1027.3 339.665 1026.21 337.478 1029.86 339.033C1032.14 340.004 1034.75 340.881 1036.88 342.109C1040.8 344.355 1041.7 347.712 1042.13 351.922C1042.46 355.103 1042.22 358.366 1041.87 361.536C1041.57 364.284 1040.57 364.939 1037.82 365.524C1033.31 366.483 1028.62 365.232 1024.08 365.103C1018.46 364.951 1011.59 365.922 1006.12 364.764C1001.73 363.84 1001.19 359.629 999.007 356.472C996.715 353.162 993.568 350.472 990.352 348.086C977.569 338.577 966.318 327.104 954.107 316.858C940.295 305.28 926.26 293.958 912.483 282.345C908.787 279.222 905.126 276.041 901.477 272.871C899.606 271.245 895.419 268.123 896.541 265.269C898.097 261.292 909.009 263.456 912.19 263.479C921.827 263.55 931.465 263.561 941.102 263.573C948.072 263.573 954.318 262.544 960.388 266.824C965.815 270.649 968.598 275.432 975.861 276.076ZM710.639 182.499C715.224 184.698 715.598 191.984 720.499 194.803C725.247 197.539 730.966 195.621 735.247 199.341C738.767 202.393 741.668 206.03 746.498 206.978C751.422 207.949 755.819 205.188 760.065 203.071C765.129 200.545 769.784 197.516 772.275 192.218C773.679 189.236 773.796 185.715 775.351 182.826C776.661 180.37 779.105 178.651 780.801 176.476C784.579 171.657 784.988 165.189 787.339 159.692C792.321 148.032 801.21 135.833 798.006 122.442C797.316 119.576 795.865 117.062 794.626 114.407C792.976 110.886 793.433 107.6 793.468 103.834C793.55 95.9628 790.205 85.9864 793.409 78.6883C796.473 71.7411 799.889 66.7587 797.514 58.9344C795.21 51.3673 797.397 46.1744 800.146 39.0284C802.555 32.7829 803.456 26.2918 805.491 19.9528C806.473 16.8885 808.286 11.9062 811.339 9.80095C811.432 11.146 811.573 12.4909 812.216 13.8126C813.502 16.4207 815.783 17.8125 817.818 19.7656C823.654 25.3328 823.362 34.3384 823.023 41.8002C822.707 48.7708 825.362 51.5076 829.49 56.7473C833.525 61.8583 835.408 67.9985 836.648 74.2907C838.894 85.6589 839.104 97.5417 844.274 108.15C846.402 112.5 850.016 118.348 855.665 117.763C860.577 117.261 862.542 113.167 862.94 108.898C866.25 107.495 871.021 106.758 873.723 107.822C881.22 110.781 883.98 124.231 885.559 131.073C886.273 134.172 886.413 137.307 887.571 140.301C889.08 144.184 891.021 146.991 890.927 151.33C890.764 158.534 889.442 166.008 892.916 172.768C893.933 174.733 895.29 176.522 897.091 177.821C900.038 179.961 904.494 179.832 906.413 183.177C908.565 186.92 907.372 193.013 907.617 197.189C907.898 201.972 908.564 206.779 909.594 211.457C910.927 217.492 910.939 224.486 914.483 229.738C917.956 234.895 921.126 240.416 925.956 244.474C928.283 246.427 935.453 248.135 934.377 251.842C932.927 256.86 920.822 254.755 917.067 254.731C907.781 254.684 898.506 254.591 889.22 254.415C877.793 254.193 866.378 253.854 854.975 253.293C844.893 252.801 834.391 251.082 824.309 251.936C819.526 252.345 815.303 254.17 810.637 255.035C805.081 256.076 799.561 254.439 794.041 253.795C783.07 252.521 772.053 253.585 761.141 254.825C751.621 255.901 742.065 256.708 732.487 257.012C725.142 257.246 712.113 259.374 705.283 256.462C695.025 252.076 700.183 224.779 700.324 215.96C700.417 209.75 695.961 175.47 710.627 182.487L710.639 182.499ZM791.924 530.023C788.368 530.854 784.158 528.725 782.708 525.392C780.462 520.222 780.813 510.772 781.094 503.182C781.222 499.626 781.351 496.281 781.246 493.357C781.082 488.843 780.965 484.34 780.848 479.826C780.626 471.545 780.392 462.972 779.924 454.516C779.866 453.44 779.76 451.651 778.684 449.92C773.655 441.826 762.404 444.622 755.679 446.294C754.416 446.61 753.223 446.902 752.381 447.054C747.013 448.013 741.679 446.774 736.042 445.464C733.411 444.856 730.697 444.224 727.89 443.791C723.808 443.16 719.785 443.125 716.382 443.171C702.593 443.359 699.622 442.984 697.938 431.335C696.99 424.716 697.259 418.037 697.54 410.973C697.657 408.201 697.774 405.336 697.809 402.494C697.891 396.026 698.078 389.442 698.265 383.067C698.558 372.881 698.862 362.354 698.721 351.91C698.651 346.694 698.347 342.367 698.055 338.191C697.622 332.051 697.224 326.25 697.715 318.718C698.324 309.373 698.71 300.017 698.99 290.66C699.177 284.298 696.663 269.807 707.563 272.894C713.048 274.45 718.58 279 723.493 281.853C729.001 285.046 734.685 288.356 740.79 290.964C754.872 296.999 767.293 307.093 779.304 316.847C783.421 320.192 787.678 323.654 791.971 326.917C799.701 332.811 807.923 339.15 816.064 346.25C828.976 357.512 843.396 366.998 858.917 374.448C860.016 374.974 861.197 375.582 862.437 376.214C867.408 378.752 875.325 381.36 876.144 387.722C877.279 396.623 877.676 405.71 878.261 414.669C879.442 432.762 880.132 450.902 880.331 469.03C880.483 483.124 880.331 497.217 879.887 511.299C879.711 516.714 880.928 522.608 875.302 525.474C870.881 527.719 865.571 526.117 860.905 525.848C853.186 525.403 845.455 525.134 837.724 525.17C822.344 525.24 806.918 526.515 791.912 530.012L791.924 530.023ZM1015.88 520.795C1009.9 521.965 1003.71 523.17 997.732 525.544C991.592 527.977 984.914 528.877 977.85 529.824L977.557 529.86C958.014 532.479 938.19 531.895 918.564 530.514C911.582 530.023 897.734 531.438 892.354 526.865C887.255 522.526 889.173 514.328 889.337 508.562C889.618 498.749 889.758 488.925 889.746 479.112C889.735 459.113 889.126 439.113 887.922 419.149C887.466 411.546 886.916 403.944 886.284 396.354C885.688 389.173 886.928 382.787 894.623 380.553C898.272 379.489 902.05 378.401 905.453 378.307C912.845 378.12 920.599 378.167 928.085 378.225C945.265 378.342 963.043 378.471 979.861 375.851C986.785 374.775 996.855 373.173 1000.77 380.623C1005.16 388.962 1006.57 398.693 1007.45 407.956C1008.63 420.505 1009.26 433.043 1011.22 445.511C1013.31 458.89 1016.53 472.001 1020.3 485.007C1022.34 492.001 1023.47 498.585 1023.1 505.895C1022.95 508.889 1023.66 513.369 1022.78 516.187C1021.99 518.772 1018.32 520.316 1015.9 520.784L1015.88 520.795ZM1087.88 516.725C1076.82 517.988 1075.34 525.322 1074.27 530.667C1073.74 533.263 1073.25 535.719 1071.87 537.953C1070.89 539.543 1069.89 540.386 1068.9 540.456C1066.97 540.608 1063.87 538.479 1061.13 535.193C1056.48 529.591 1049.57 526.971 1043.49 524.643C1042.22 524.164 1040.99 523.696 1039.8 523.205C1037.91 522.421 1034.56 521.965 1032.99 520.772C1031.43 519.579 1031.18 516.386 1031.08 514.573C1030.83 510.211 1032.01 505.755 1031.99 501.498C1031.95 494.656 1030.33 488.2 1028.44 481.673C1027.31 477.755 1026.23 473.814 1025.23 469.861C1024.66 467.627 1023.66 463.955 1026.91 463.089C1029.77 462.317 1035.39 466.609 1037.81 468.106C1044.98 472.563 1051.57 477.943 1059.05 481.884C1066.08 485.58 1073.94 486.703 1081.78 487.124C1085.67 487.334 1089.58 487.369 1093.47 487.568C1099.24 487.86 1102.44 489.568 1106.33 493.673C1109.02 496.515 1116.83 500.55 1115.18 505.041C1113.64 509.24 1108.89 510.784 1105.13 512.351C1099.61 514.655 1093.81 516.047 1087.88 516.725Z" fill="#090E12"/>
</g>
<path id="Vector_10" d="M891.734 357.77L889.536 359.594C886.694 361.957 886.39 359.162 883.711 358.132C877.524 350.331 871.606 342.437 868.238 332.741C866.472 327.665 865.314 322.741 865.431 317.35C865.688 305.502 874.53 296.356 886.284 295.467C901.231 294.333 911.453 306.718 910.237 320.531C909.184 332.531 898.342 352.273 891.734 357.77ZM898.916 314.894C897.231 309.128 892.319 305.783 886.67 306.239C881.325 306.672 876.998 309.935 875.477 314.601C873.828 319.677 875.501 324.788 879.583 328.133C883.91 331.677 889.781 331.77 894.249 328.694C898.717 325.618 900.483 320.285 898.916 314.905V314.894Z" fill="#D97804"/>
<path id="Vector_11" d="M883.711 358.132C886.39 359.162 886.694 361.957 889.536 359.594L891.734 357.77C893.033 358.834 894.576 360.624 893.056 362.284C890.553 365.009 885.922 364.951 883.08 362.752C882.132 362.015 881.98 360.904 882.238 359.863C882.401 359.232 883.08 358.612 883.711 358.132Z" fill="#090E12"/>
</g>
<defs>
<clipPath id="clip0_0_4">
<rect width="1128.88" height="783" fill="white"/>
</clipPath>
</defs>
</svg>
